<?xml version="1.0" encoding="UTF-8" standalone="no"?>
<!-- Created with Inkscape (http://www.inkscape.org/) -->

<svg
   width="210mm"
   height="297mm"
   viewBox="0 0 210 297"
   version="1.1"
   id="svg1"
   inkscape:version="1.3 (0e150ed6c4, 2023-07-21)"
   sodipodi:docname="hexxie.svg"
   xmlns:inkscape="http://www.inkscape.org/namespaces/inkscape"
   xmlns:sodipodi="http://sodipodi.sourceforge.net/DTD/sodipodi-0.dtd"
   xmlns="http://www.w3.org/2000/svg"
   xmlns:svg="http://www.w3.org/2000/svg">
  <sodipodi:namedview
     id="namedview1"
     pagecolor="#ffffff"
     bordercolor="#000000"
     borderopacity="0.25"
     inkscape:showpageshadow="2"
     inkscape:pageopacity="0.0"
     inkscape:pagecheckerboard="0"
     inkscape:deskcolor="#d1d1d1"
     inkscape:document-units="mm"
     inkscape:zoom="0.74029882"
     inkscape:cx="396.46153"
     inkscape:cy="561.25984"
     inkscape:window-width="1692"
     inkscape:window-height="1077"
     inkscape:window-x="0"
     inkscape:window-y="27"
     inkscape:window-maximized="1"
     inkscape:current-layer="layer1" />
  <defs
     id="defs1">
    <inkscape:path-effect
       effect="fillet_chamfer"
       id="path-effect1"
       is_visible="true"
       lpeversion="1"
       nodesatellites_param="F,0,0,1,0,6.3603792,0,1 @ F,0,1,1,0,6.3603792,0,1 @ F,0,1,1,0,6.3603792,0,1 @ F,0,1,1,0,6.3603792,0,1 @ F,0,1,1,0,6.3603792,0,1 @ F,0,1,1,0,6.3603792,0,1"
       radius="0"
       unit="px"
       method="auto"
       mode="F"
       chamfer_steps="1"
       flexible="false"
       use_knot_distance="true"
       apply_no_radius="true"
       apply_with_radius="true"
       only_selected="false"
       hide_knots="false" />
  </defs>
  <g
     inkscape:label="Layer 1"
     inkscape:groupmode="layer"
     id="layer1">
    <path
       id="path1"
       style="fill:none;stroke:#000000;stroke-width:0.264583"
       d="m 79.354532,89.103132 -22.579794,-2e-6 A 11.0165,11.0165 30.000003 0 1 47.23417,83.59488 L 35.944273,64.040204 a 11.0165,11.0165 90.000003 0 1 10e-7,-11.0165 L 47.234172,33.46903 a 11.0165,11.0165 150 0 1 9.540569,-5.50825 l 22.579794,1e-6 a 11.0165,11.0165 30.000001 0 1 9.540569,5.50825 L 100.185,53.023707 a 11.016499,11.016499 90.000003 0 1 0,11.0165 L 88.895101,83.594882 a 11.0165,11.0165 150 0 1 -9.540569,5.50825 z"
       inkscape:path-effect="#path-effect1"
       inkscape:original-d="m 85.714911,89.103132 -35.300552,-2e-6 -17.650275,-30.571176 17.650278,-30.571174 35.300552,1e-6 17.650276,30.571176 z"
       transform="matrix(0.65139223,0,0,0.65139223,11.969842,9.7012273)" />
  </g>
</svg>
