<?xml version="1.0" encoding="UTF-8" standalone="no"?>
<!-- Created with Inkscape (http://www.inkscape.org/) -->

<svg
   width="210mm"
   height="297mm"
   viewBox="0 0 210 297"
   version="1.1"
   id="svg1"
   inkscape:version="1.3 (0e150ed6c4, 2023-07-21)"
   sodipodi:docname="hexxie.svg"
   inkscape:export-filename="hexxie-exp.svg"
   inkscape:export-xdpi="96"
   inkscape:export-ydpi="96"
   xmlns:inkscape="http://www.inkscape.org/namespaces/inkscape"
   xmlns:sodipodi="http://sodipodi.sourceforge.net/DTD/sodipodi-0.dtd"
   xmlns:xlink="http://www.w3.org/1999/xlink"
   xmlns="http://www.w3.org/2000/svg"
   xmlns:svg="http://www.w3.org/2000/svg">
  <sodipodi:namedview
     id="namedview1"
     pagecolor="#ffffff"
     bordercolor="#000000"
     borderopacity="0.25"
     inkscape:showpageshadow="2"
     inkscape:pageopacity="0.0"
     inkscape:pagecheckerboard="0"
     inkscape:deskcolor="#d1d1d1"
     inkscape:document-units="mm"
     inkscape:zoom="4.2562545"
     inkscape:cx="202.64296"
     inkscape:cy="169.51524"
     inkscape:window-width="1692"
     inkscape:window-height="1077"
     inkscape:window-x="0"
     inkscape:window-y="27"
     inkscape:window-maximized="1"
     inkscape:current-layer="layer2"
     inkscape:export-bgcolor="#ffffffff" />
  <defs
     id="defs1">
    <inkscape:path-effect
       effect="fillet_chamfer"
       id="path-effect1"
       is_visible="true"
       lpeversion="1"
       nodesatellites_param="F,0,0,1,0,6.3603792,0,1 @ F,0,1,1,0,6.3603792,0,1 @ F,0,1,1,0,6.3603792,0,1 @ F,0,1,1,0,6.3603792,0,1 @ F,0,1,1,0,6.3603792,0,1 @ F,0,1,1,0,6.3603792,0,1"
       radius="0"
       unit="px"
       method="auto"
       mode="F"
       chamfer_steps="1"
       flexible="false"
       use_knot_distance="true"
       apply_no_radius="true"
       apply_with_radius="true"
       only_selected="false"
       hide_knots="false" />
    <inkscape:path-effect
       effect="fillet_chamfer"
       id="path-effect1-7"
       is_visible="true"
       lpeversion="1"
       nodesatellites_param="F,0,0,1,0,6.3603792,0,1 @ F,0,1,1,0,6.3603792,0,1 @ F,0,1,1,0,6.3603792,0,1 @ F,0,1,1,0,6.3603792,0,1 @ F,0,1,1,0,6.3603792,0,1 @ F,0,1,1,0,6.3603792,0,1"
       radius="0"
       unit="px"
       method="auto"
       mode="F"
       chamfer_steps="1"
       flexible="false"
       use_knot_distance="true"
       apply_no_radius="true"
       apply_with_radius="true"
       only_selected="false"
       hide_knots="false" />
  </defs>
  <g
     inkscape:label="Outline"
     inkscape:groupmode="layer"
     id="layer1">
    <path
       id="path1"
       style="fill:none;stroke:#000000;stroke-width:0.264583"
       d="m 79.354532,89.103132 -22.579794,-2e-6 A 11.0165,11.0165 30.000003 0 1 47.23417,83.59488 L 35.944273,64.040204 a 11.0165,11.0165 90.000003 0 1 10e-7,-11.0165 L 47.234172,33.46903 a 11.0165,11.0165 150 0 1 9.540569,-5.50825 l 22.579794,1e-6 a 11.0165,11.0165 30.000001 0 1 9.540569,5.50825 L 100.185,53.023707 a 11.016499,11.016499 90.000003 0 1 0,11.0165 L 88.895101,83.594882 a 11.0165,11.0165 150 0 1 -9.540569,5.50825 z"
       inkscape:path-effect="#path-effect1"
       inkscape:original-d="m 85.714911,89.103132 -35.300552,-2e-6 -17.650275,-30.571176 17.650278,-30.571174 35.300552,1e-6 17.650276,30.571176 z"
       transform="matrix(0.65139223,0,0,0.65139223,11.969842,9.7012273)"
       inkscape:label="Cuts" />
  </g>
  <g
     inkscape:groupmode="layer"
     id="layer2"
     inkscape:label="FrontArt">
    <path
       d="m 47.332135,38.368207 q 0.198382,0.171445 0.286861,0.411733 0.08487,0.23717 0.03526,0.484136 -0.04961,0.246966 -0.21482,0.438133 l -1.069192,1.23718 -2.423862,-2.094745 0.975677,-1.128971 q 0.193265,-0.22363 0.43618,-0.32244 0.242916,-0.09881 0.487254,-0.03887 0.244338,0.05994 0.414844,0.219897 0.299376,0.258726 0.285656,0.580815 0.411019,-0.111055 0.78614,0.213132 z m -1.479657,-0.314714 q -0.09378,-0.08105 -0.211207,-0.06911 -0.11431,0.0083 -0.19224,0.0985 l -0.60785,0.703353 0.414798,0.358475 0.598498,-0.692532 q 0.08991,-0.111325 0.08568,-0.215794 -0.0011,-0.108075 -0.08768,-0.182887 z m 1.037865,0.74572 q -0.100995,-0.08728 -0.256139,-0.08274 -0.152027,9.34e-4 -0.280811,0.13537 l -0.614084,0.710566 0.559075,0.483163 0.645256,-0.746636 q 0.111239,-0.143298 0.08078,-0.283035 -0.02734,-0.143344 -0.134079,-0.216687 z m 3.967966,-1.809353 -0.5628,0.384703 -0.674249,-0.445724 -1.042951,0.712912 0.170484,0.790074 -0.562799,0.384703 -0.745208,-3.371128 0.547057,-0.373943 z m -1.810066,-0.443127 -0.800939,-0.538137 0.18304,0.960504 z m 3.942313,-1.9956 q 0.242634,0.687852 -0.02058,1.245774 -0.260307,0.55184 -0.934672,0.789717 L 51.095686,36.918065 50.03,33.896911 50.969614,33.56547 q 0.678861,-0.239462 1.229377,0.03142 0.550517,0.270885 0.791565,0.954241 z m -0.588945,0.207745 q -0.150655,-0.427097 -0.468485,-0.582909 -0.314919,-0.161893 -0.719538,-0.01917 l -0.377644,0.133211 0.64068,1.816288 0.377645,-0.13321 q 0.404618,-0.142726 0.549853,-0.46188 0.148144,-0.325235 -0.0025,-0.752333 z m 4.018529,-0.595001 q 0.07002,0.754753 -0.235984,1.223615 -0.306446,0.464114 -0.92354,0.521365 -0.659816,0.06122 -1.064618,-0.380003 -0.404803,-0.441218 -0.469981,-1.143756 -0.06826,-0.735766 0.279146,-1.222832 0.347407,-0.487065 0.973995,-0.545197 0.37975,-0.03523 0.710219,0.120831 0.330029,0.151315 0.526117,0.458689 l -0.531947,0.355767 q -0.242332,-0.341386 -0.669551,-0.301751 -0.341776,0.03171 -0.520349,0.325965 -0.174266,0.289068 -0.131548,0.749515 0.0436,0.469941 0.268511,0.726764 0.229218,0.251635 0.580927,0.223793 0.431085,-0.04957 0.515847,-0.426089 l -0.560132,0.05197 -0.05725,-0.617094 z m 2.83273,1.948663 -2.348093,-0.350426 0.472863,-3.16851 2.305657,0.344092 -0.09429,0.631816 -1.683271,-0.251209 -0.0774,0.518655 0.952439,0.142141 -0.09429,0.631816 -0.952439,-0.14214 -0.112587,0.754407 1.725707,0.257541 z m 2.643849,1.006391 -2.20222,-0.886884 1.196758,-2.971671 0.583721,0.235078 -0.958119,2.379106 1.618499,0.651806 z m 0.985468,0.639661 -0.543897,-0.33505 1.680249,-2.727604 0.543897,0.33505 z m 3.951276,-0.09815 -1.310181,-1.15231 -0.377806,0.429568 0.773221,0.680051 -0.421883,0.479684 -0.773222,-0.680051 -0.894142,1.016643 -0.472524,-0.415587 2.115716,-2.405578 1.782705,1.567896 z m -0.02199,4.202162 -1.369202,-1.93949 2.617142,-1.847599 1.344459,1.904439 -0.521871,0.36842 -0.981537,-1.390358 -0.428402,0.302435 0.55538,0.786701 -0.521871,0.36842 -0.555379,-0.786701 -0.62313,0.439904 1.006282,1.425409 z"
       id="text20"
       style="font-size:4.23333px;font-family:'Freeway Gothic';-inkscape-font-specification:'Freeway Gothic, Normal';letter-spacing:-0.396875px;stroke-width:0.1"
       inkscape:label="BadgeLifePath"
       aria-label="BADGELIFE" />
    <path
       id="path1-3"
       style="fill:none;stroke:#000000;stroke-width:3.23194;stroke-dasharray:none"
       d="m 79.354532,89.103132 -22.579794,-2e-6 A 11.0165,11.0165 30.000003 0 1 47.23417,83.59488 L 35.944273,64.040204 a 11.0165,11.0165 90.000003 0 1 10e-7,-11.0165 L 47.234172,33.46903 a 11.0165,11.0165 150 0 1 9.540569,-5.50825 l 22.579794,1e-6 a 11.0165,11.0165 30.000001 0 1 9.540569,5.50825 L 100.185,53.023707 a 11.016499,11.016499 90.000003 0 1 0,11.0165 L 88.895101,83.594882 a 11.0165,11.0165 150 0 1 -9.540569,5.50825 z"
       inkscape:path-effect="#path-effect1-7"
       inkscape:original-d="m 85.714911,89.103132 -35.300552,-2e-6 -17.650275,-30.571176 17.650278,-30.571174 35.300552,1e-6 17.650276,30.571176 z"
       transform="matrix(0.62136606,0,0,0.62136606,14.013562,11.458718)"
       inkscape:label="BoldLine" />
    <g
       id="g1722"
       transform="matrix(0.21274287,-0.15804301,0.15804301,0.21274287,-270.34831,205.95274)"
       inkscape:label="LED Symbol">
      <g
         transform="translate(504)"
         id="g1693">
        <path
           sodipodi:nodetypes="cc"
           inkscape:connector-curvature="0"
           id="path1684"
           d="m 805,262.41665 h 21"
           style="display:inline;fill:none;stroke:#000000;stroke-width:3.5;stroke-linecap:round;stroke-linejoin:miter;stroke-miterlimit:4;stroke-dasharray:none;stroke-opacity:1" />
        <path
           sodipodi:nodetypes="cc"
           inkscape:connector-curvature="0"
           id="path1687"
           d="M 854.00002,262.41665 H 868"
           style="display:inline;fill:none;stroke:#000000;stroke-width:3.5;stroke-linecap:round;stroke-linejoin:miter;stroke-miterlimit:4;stroke-dasharray:none;stroke-opacity:1" />
        <path
           sodipodi:nodetypes="cccc"
           inkscape:connector-curvature="0"
           id="path1689"
           d="m 854,262.41665 -28,14 v -28 z"
           style="display:inline;fill:#000000;stroke:#000000;stroke-width:3.5;stroke-linecap:square;stroke-miterlimit:4;stroke-dasharray:none;stroke-dashoffset:0;stroke-opacity:1" />
        <path
           sodipodi:nodetypes="cc"
           inkscape:connector-curvature="0"
           id="path1691"
           d="m 854,248.41665 v 28"
           style="display:inline;fill:none;stroke:#000000;stroke-width:3.5;stroke-linecap:square;stroke-linejoin:miter;stroke-miterlimit:4;stroke-dasharray:none;stroke-opacity:1" />
      </g>
      <path
         style="opacity:1;fill:#000000;fill-opacity:1;fill-rule:nonzero;stroke:none;stroke-width:3.5;stroke-linecap:round;stroke-linejoin:round;stroke-miterlimit:4;stroke-dasharray:none;stroke-dashoffset:0;stroke-opacity:1"
         d="m 1340.5,228.29165 7,5.25 1.75,-9.625 z"
         id="path1697"
         inkscape:connector-curvature="0"
         sodipodi:nodetypes="cccc" />
      <path
         inkscape:connector-curvature="0"
         id="path1699"
         d="m 1344,230.91665 -5.25,7"
         style="opacity:1;fill:none;fill-opacity:1;fill-rule:nonzero;stroke:#000000;stroke-width:3.5;stroke-linecap:square;stroke-linejoin:round;stroke-miterlimit:4;stroke-dasharray:none;stroke-dashoffset:0;stroke-opacity:1" />
      <path
         sodipodi:nodetypes="cccc"
         inkscape:connector-curvature="0"
         id="path1702"
         d="m 1352.75,231.79165 7,5.25 1.75,-9.625 z"
         style="opacity:1;fill:#000000;fill-opacity:1;fill-rule:nonzero;stroke:none;stroke-width:3.5;stroke-linecap:round;stroke-linejoin:round;stroke-miterlimit:4;stroke-dasharray:none;stroke-dashoffset:0;stroke-opacity:1" />
      <path
         style="opacity:1;fill:none;fill-opacity:1;fill-rule:nonzero;stroke:#000000;stroke-width:3.5;stroke-linecap:square;stroke-linejoin:round;stroke-miterlimit:4;stroke-dasharray:none;stroke-dashoffset:0;stroke-opacity:1"
         d="m 1356.25,234.41665 -5.25,7"
         id="path1704"
         inkscape:connector-curvature="0" />
    </g>
    <text
       xml:space="preserve"
       style="font-style:normal;font-variant:normal;font-weight:normal;font-stretch:normal;font-size:4.23333px;font-family:'Freeway Gothic';-inkscape-font-specification:'Freeway Gothic, Normal';font-variant-ligatures:normal;font-variant-caps:normal;font-variant-numeric:normal;font-variant-east-asian:normal;letter-spacing:-0.396875px;display:none;fill:#000000;fill-opacity:1;stroke:none;stroke-width:0.1;stroke-dasharray:none;stroke-opacity:1"
       id="text3"
       inkscape:label="BadgeLifeText"
       sodipodi:insensitive="true"><textPath
         xlink:href="#circle4"
         id="textPath4"><tspan
           id="tspan3"
           style="font-style:normal;font-variant:normal;font-weight:normal;font-stretch:normal;font-size:4.23333px;font-family:'Freeway Gothic';-inkscape-font-specification:'Freeway Gothic, Normal';font-variant-ligatures:normal;font-variant-caps:normal;font-variant-numeric:normal;font-variant-east-asian:normal;letter-spacing:-0.396875px;fill:#000000;fill-opacity:1;stroke:none;stroke-width:0.1">BADGELIFE</tspan></textPath></text>
    <text
       xml:space="preserve"
       style="font-style:normal;font-variant:normal;font-weight:normal;font-stretch:normal;font-size:3.52778px;font-family:'Freeway Gothic';-inkscape-font-specification:'Freeway Gothic, Normal';font-variant-ligatures:normal;font-variant-caps:normal;font-variant-numeric:normal;font-variant-east-asian:normal;display:none;fill:#000000;fill-opacity:1;stroke:none;stroke-width:0.1;stroke-dasharray:none;stroke-opacity:1"
       id="text4"
       inkscape:label="MeritBadgeText"
       sodipodi:insensitive="true"><textPath
         xlink:href="#circle4-4"
         id="textPath5"><tspan
           id="tspan4"
           style="font-style:normal;font-variant:normal;font-weight:normal;font-stretch:normal;font-size:3.52778px;font-family:'Freeway Gothic';-inkscape-font-specification:'Freeway Gothic, Normal';font-variant-ligatures:normal;font-variant-caps:normal;font-variant-numeric:normal;font-variant-east-asian:normal;fill:#000000;fill-opacity:1;stroke:none;stroke-width:0.1">MERIT BADGE</tspan></textPath></text>
    <circle
       style="display:none;fill:none;stroke:#000000;stroke-width:0.1;stroke-dasharray:none;stroke-opacity:1"
       id="circle4"
       cx="-73.261559"
       cy="-9.5259514"
       r="12.022502"
       transform="rotate(-147.06286)"
       inkscape:label="BLPath"
       sodipodi:insensitive="true" />
    <circle
       style="display:none;fill:none;stroke:#000000;stroke-width:0.12646;stroke-dasharray:none;stroke-opacity:1"
       id="circle4-4"
       cx="-15.179282"
       cy="72.302078"
       r="15.203714"
       inkscape:label="MBPath"
       transform="matrix(-0.79017823,0.61287711,0.61287711,0.79017823,0,0)"
       sodipodi:insensitive="true" />
    <path
       d="m 46.197471,59.252118 -0.363126,-0.378332 1.043279,-1.001346 -1.532948,0.491171 0.539855,-1.525852 -1.043279,1.001346 -0.363125,-0.378332 1.926053,-1.848638 0.363125,0.378332 -0.554185,1.539606 1.547278,-0.504926 0.363126,0.378332 z m 2.176057,1.583816 -1.618765,-1.137423 1.534836,-2.184359 1.589511,1.116868 -0.306054,0.435571 -1.16044,-0.815382 -0.251238,0.357559 0.656607,0.461365 -0.306053,0.435571 -0.656608,-0.461364 -0.365437,0.520085 1.189695,0.835938 z m 2.559651,1.25558 -0.50896,-0.23395 0.08798,-1.05701 -0.635298,-0.292022 -0.416463,0.906022 -0.476473,-0.219017 1.114993,-2.425682 1.093723,0.502742 q 0.263504,0.121123 0.393919,0.303495 0.134024,0.184031 0.153792,0.407361 0.02143,0.219721 -0.07149,0.421862 -0.192469,0.418719 -0.643526,0.486842 z m 0.259257,-1.905216 q 0.05309,-0.115509 0.0013,-0.231132 -0.04652,-0.117575 -0.180076,-0.178966 l -0.660566,-0.303636 -0.25386,0.552276 0.660566,0.303636 q 0.133556,0.06139 0.251422,0.02375 0.123134,-0.03959 0.181207,-0.165929 z m 0.985536,2.276982 -0.509758,-0.15342 0.769385,-2.556402 0.509759,0.15342 z m 3.033959,-1.576965 -0.717833,-0.115144 -0.33851,2.11035 -0.509936,-0.0818 0.33851,-2.11035 -0.725677,-0.116402 0.08431,-0.525626 1.953446,0.313342 z m 3.783822,1.138924 q 0.02459,0.217112 -0.05704,0.414267 -0.08207,0.193207 -0.252035,0.316404 -0.169963,0.123198 -0.37918,0.146889 l -1.353991,0.153326 -0.300393,-2.652717 1.235566,-0.139916 q 0.244745,-0.02771 0.449348,0.04907 0.204602,0.07678 0.320352,0.251588 0.115749,0.174804 0.129758,0.369126 0.0371,0.327642 -0.153341,0.517128 0.314466,0.164296 0.360955,0.574836 z m -0.728236,-1.029011 q -0.01162,-0.102635 -0.09028,-0.161696 -0.07471,-0.05951 -0.173394,-0.04833 l -0.769762,0.08717 0.05141,0.453962 0.757919,-0.08583 q 0.117978,-0.01736 0.174433,-0.08372 0.0604,-0.06681 0.04967,-0.161551 z m 0.214092,1.043253 q -0.01252,-0.11053 -0.11009,-0.195436 -0.09362,-0.08535 -0.248472,-0.07581 l -0.777656,0.08806 0.06929,0.611862 0.817131,-0.09253 q 0.149111,-0.02488 0.209438,-0.127668 0.06427,-0.103233 0.04036,-0.208474 z m 3.675043,-0.113141 -0.541905,0.170518 -0.429743,-0.518643 -1.004229,0.315995 -0.05532,0.671275 -0.541905,0.170518 0.221862,-2.868531 0.526747,-0.165749 z m -1.336069,-0.791532 -0.508394,-0.623002 -0.08656,0.810214 z m 3.057892,-1.637222 q 0.290478,0.533925 0.147581,1.027746 -0.141305,0.488433 -0.664761,0.773216 l -0.729349,0.396797 -1.275825,-2.345083 0.729348,-0.396797 q 0.526946,-0.286681 1.015686,-0.136498 0.48874,0.150184 0.77732,0.680619 z m -0.457152,0.24871 q -0.180362,-0.331522 -0.46245,-0.417752 -0.280496,-0.09162 -0.59457,0.07925 l -0.293135,0.159478 0.767014,1.409841 0.293135,-0.159478 q 0.314074,-0.170869 0.391426,-0.45265 0.07894,-0.287169 -0.10142,-0.618691 z m 2.537425,-1.860071 q 0.398413,0.490169 0.403896,0.956708 0.003,0.463456 -0.39779,0.789203 -0.428512,0.348298 -0.913381,0.230453 -0.484869,-0.117846 -0.855719,-0.574103 -0.388391,-0.477838 -0.373645,-0.976177 0.01475,-0.498339 0.421678,-0.829097 0.246626,-0.20046 0.547816,-0.245609 0.298684,-0.04823 0.576974,0.0737 l -0.203405,0.492978 q -0.326081,-0.124041 -0.603535,0.101476 -0.221963,0.180413 -0.209191,0.466964 0.01335,0.280962 0.256406,0.579996 0.248068,0.305199 0.52288,0.378762 0.275389,0.06797 0.506023,-0.114369 0.275526,-0.234188 0.159654,-0.534209 l -0.363773,0.295678 -0.325747,-0.400767 z m 2.539724,-0.920645 -1.286575,1.50295 -2.028078,-1.736101 1.263324,-1.475788 0.404408,0.346186 -0.922303,1.077417 0.331977,0.284183 0.521863,-0.609631 0.404409,0.346187 -0.521864,0.609631 0.482876,0.413357 0.945555,-1.104578 z"
       id="text21"
       style="font-size:3.52778px;font-family:'Freeway Gothic';-inkscape-font-specification:'Freeway Gothic, Normal';stroke-width:0.1"
       inkscape:label="MeritBadgePath"
       aria-label="MERIT BADGE" />
  </g>
</svg>
