%TF.GenerationSoftware,KiCad,Pcbnew,7.0.7*%
%TF.CreationDate,2023-09-02T14:38:41-07:00*%
%TF.ProjectId,badgelife101,62616467-656c-4696-9665-3130312e6b69,rev?*%
%TF.SameCoordinates,Original*%
%TF.FileFunction,Profile,NP*%
%FSLAX46Y46*%
G04 Gerber Fmt 4.6, Leading zero omitted, Abs format (unit mm)*
G04 Created by KiCad (PCBNEW 7.0.7) date 2023-09-02 14:38:41*
%MOMM*%
%LPD*%
G01*
G04 APERTURE LIST*
%TA.AperFunction,Profile*%
%ADD10C,0.172347*%
%TD*%
G04 APERTURE END LIST*
D10*
X140178430Y-109913823D02*
X140178427Y-109913830D01*
X140656636Y-109897920D02*
X140418185Y-109909831D01*
X141128969Y-109850716D02*
X140893618Y-109878184D01*
X141362525Y-109815611D02*
X141128969Y-109850716D01*
X141594124Y-109772964D02*
X141362525Y-109815611D01*
X141823600Y-109722869D02*
X141594124Y-109772964D01*
X122291747Y-70828418D02*
X122501798Y-70728827D01*
X121882094Y-71047584D02*
X122085124Y-70934701D01*
X121109163Y-71563220D02*
X121296191Y-71424884D01*
X120406775Y-107823107D02*
X120085305Y-107481392D01*
X120748498Y-71858180D02*
X120926544Y-71707684D01*
X120575188Y-72014615D02*
X120748498Y-71858180D01*
X120085308Y-72518608D02*
X120243429Y-72344923D01*
X119932575Y-72697855D02*
X120085308Y-72518608D01*
X124054428Y-109772971D02*
X123597759Y-109665427D01*
X121682820Y-71166972D02*
X121882094Y-71047584D01*
X121487464Y-71292770D02*
X121682820Y-71166972D01*
X119508350Y-73268018D02*
X119643933Y-73072654D01*
X140178430Y-70086174D02*
X140656634Y-70102077D01*
X119255476Y-73674204D02*
X119378809Y-73468566D01*
X111901323Y-86411969D02*
X119255476Y-73674204D01*
X119508346Y-106731981D02*
X119255472Y-106325795D01*
X119785396Y-72882568D02*
X119932575Y-72697855D01*
X154333089Y-92291576D02*
X154167846Y-92733288D01*
X145241775Y-107823106D02*
X145073365Y-107985385D01*
X143965734Y-108833027D02*
X143766460Y-108952415D01*
X123373021Y-70399286D02*
X123597764Y-70334577D01*
X111675992Y-86834058D02*
X111901323Y-86411969D01*
X110954934Y-89535648D02*
X111000000Y-89072804D01*
X141128967Y-70149281D02*
X141594121Y-70227032D01*
X111075110Y-88612980D02*
X111180264Y-88157683D01*
X124519582Y-109850723D02*
X124054428Y-109772971D01*
X119255472Y-106325795D02*
X111901323Y-93588032D01*
X145863157Y-72882567D02*
X146140205Y-73268018D01*
X121487460Y-108707232D02*
X121109160Y-108436782D01*
X140893618Y-109878184D02*
X140656636Y-109897920D01*
X111675993Y-93165943D02*
X111480706Y-92733288D01*
X124991916Y-109897928D02*
X124519582Y-109850723D01*
X120926544Y-71707684D02*
X121109163Y-71563220D01*
X144352363Y-108575115D02*
X144161090Y-108707229D01*
X123150884Y-109528845D02*
X122715109Y-109363980D01*
X124754938Y-70121814D02*
X124991920Y-70102077D01*
X111480705Y-87266713D02*
X111675992Y-86834058D01*
X122085124Y-70934701D02*
X122291747Y-70828418D01*
X120748495Y-108141822D02*
X120406775Y-107823107D01*
X123150889Y-70471159D02*
X123373021Y-70399286D01*
X145241774Y-72176893D02*
X145563245Y-72518608D01*
X111000001Y-90927197D02*
X110954934Y-90464353D01*
X146393080Y-106325795D02*
X146269745Y-106531433D01*
X111315463Y-87708425D02*
X111480705Y-87266713D01*
X111480706Y-92733288D02*
X111315464Y-92291576D01*
X154167846Y-87266713D02*
X154333089Y-87708425D01*
X110939912Y-90000000D02*
X110954934Y-89535648D01*
X111075111Y-91387021D02*
X111000001Y-90927197D01*
X111000000Y-89072804D02*
X111075110Y-88612980D01*
X122291742Y-109171586D02*
X121882090Y-108952419D01*
X146269745Y-106531433D02*
X146140205Y-106731981D01*
X125230370Y-70090166D02*
X125470125Y-70086174D01*
X144161087Y-71292769D02*
X144539388Y-71563219D01*
X119785393Y-107117432D02*
X119508346Y-106731981D01*
X143563430Y-109065298D02*
X143356808Y-109171581D01*
X111901323Y-93588032D02*
X111675993Y-93165943D01*
X144539388Y-71563219D02*
X144900053Y-71858179D01*
X121109160Y-108436782D02*
X120748495Y-108141822D01*
X122501798Y-70728827D02*
X122715114Y-70636024D01*
X140178427Y-109913830D02*
X125470121Y-109913830D01*
X111180265Y-91842318D02*
X111075111Y-91387021D01*
X154693619Y-90464353D02*
X154648553Y-90927197D01*
X123597764Y-70334577D02*
X123824956Y-70277128D01*
X119378809Y-73468566D02*
X119508350Y-73268018D01*
X125470121Y-109913830D02*
X124991916Y-109897928D01*
X142497663Y-70471158D02*
X142933438Y-70636023D01*
X120085305Y-107481392D02*
X119785393Y-107117432D01*
X111315464Y-92291576D02*
X111180265Y-91842318D01*
X145563245Y-72518608D02*
X145863157Y-72882567D01*
X110954934Y-90464353D02*
X110939912Y-90000000D01*
X144900053Y-71858179D02*
X145241774Y-72176893D01*
X153972560Y-86834058D02*
X154167846Y-87266713D01*
X122715114Y-70636024D02*
X122931532Y-70550103D01*
X123824956Y-70277128D02*
X124054433Y-70227033D01*
X119643933Y-73072654D02*
X119785396Y-72882568D01*
X124054433Y-70227033D02*
X124286031Y-70184386D01*
X154333089Y-87708425D02*
X154468288Y-88157683D01*
X120243429Y-72344923D02*
X120406777Y-72176894D01*
X124286031Y-70184386D02*
X124519587Y-70149281D01*
X120406777Y-72176894D02*
X120575188Y-72014615D01*
X124519587Y-70149281D02*
X124754938Y-70121814D01*
X125470125Y-70086174D02*
X140178430Y-70086174D01*
X140656634Y-70102077D02*
X141128967Y-70149281D01*
X141594121Y-70227032D02*
X142050789Y-70334576D01*
X140418185Y-109909831D02*
X140178430Y-109913823D01*
X142050789Y-70334576D02*
X142497663Y-70471158D01*
X142933438Y-70636023D02*
X143356805Y-70828416D01*
X122715109Y-109363980D02*
X122291742Y-109171586D01*
X143356805Y-70828416D02*
X143766457Y-71047583D01*
X143766457Y-71047583D02*
X144161087Y-71292769D01*
X146140205Y-73268018D02*
X146393080Y-73674204D01*
X154468288Y-88157683D02*
X154573442Y-88612980D01*
X142933441Y-109363974D02*
X142717023Y-109449895D01*
X154573442Y-88612980D02*
X154648553Y-89072804D01*
X154648553Y-89072804D02*
X154693619Y-89535648D01*
X154693619Y-89535648D02*
X154708641Y-90000000D01*
X145863158Y-107117432D02*
X145715978Y-107302145D01*
X153747228Y-86411969D02*
X153972560Y-86834058D01*
X142275535Y-109600712D02*
X142050792Y-109665421D01*
X154708641Y-90000000D02*
X154693619Y-90464353D01*
X154648553Y-90927197D02*
X154573442Y-91387021D01*
X154573442Y-91387021D02*
X154468288Y-91842318D01*
X111180264Y-88157683D02*
X111315463Y-87708425D01*
X154468288Y-91842318D02*
X154333089Y-92291576D01*
X145073365Y-107985385D02*
X144900055Y-108141820D01*
X154167846Y-92733288D02*
X153972560Y-93165943D01*
X153972560Y-93165943D02*
X153747228Y-93588032D01*
X144161090Y-108707229D02*
X143965734Y-108833027D01*
X153747228Y-93588032D02*
X146393080Y-106325795D01*
X123597759Y-109665427D02*
X123150884Y-109528845D01*
X146140205Y-106731981D02*
X146004621Y-106927346D01*
X121296191Y-71424884D02*
X121487464Y-71292770D01*
X146004621Y-106927346D02*
X145863158Y-107117432D01*
X145715978Y-107302145D02*
X145563245Y-107481392D01*
X143356808Y-109171581D02*
X143146757Y-109271172D01*
X145563245Y-107481392D02*
X145405123Y-107655077D01*
X121882090Y-108952419D02*
X121487460Y-108707232D01*
X145405123Y-107655077D02*
X145241775Y-107823106D01*
X124991920Y-70102077D02*
X125230370Y-70090166D01*
X144900055Y-108141820D02*
X144722009Y-108292316D01*
X142050792Y-109665421D02*
X141823600Y-109722869D01*
X122931532Y-70550103D02*
X123150889Y-70471159D01*
X144722009Y-108292316D02*
X144539390Y-108436780D01*
X144539390Y-108436780D02*
X144352363Y-108575115D01*
X143766460Y-108952415D02*
X143563430Y-109065298D01*
X143146757Y-109271172D02*
X142933441Y-109363974D01*
X142717023Y-109449895D02*
X142497667Y-109528839D01*
X146393080Y-73674204D02*
X153747228Y-86411969D01*
X142497667Y-109528839D02*
X142275535Y-109600712D01*
M02*
