%TF.GenerationSoftware,KiCad,Pcbnew,7.0.7*%
%TF.CreationDate,2023-09-02T14:38:40-07:00*%
%TF.ProjectId,badgelife101,62616467-656c-4696-9665-3130312e6b69,rev?*%
%TF.SameCoordinates,Original*%
%TF.FileFunction,Copper,L1,Top*%
%TF.FilePolarity,Positive*%
%FSLAX46Y46*%
G04 Gerber Fmt 4.6, Leading zero omitted, Abs format (unit mm)*
G04 Created by KiCad (PCBNEW 7.0.7) date 2023-09-02 14:38:40*
%MOMM*%
%LPD*%
G01*
G04 APERTURE LIST*
G04 Aperture macros list*
%AMRoundRect*
0 Rectangle with rounded corners*
0 $1 Rounding radius*
0 $2 $3 $4 $5 $6 $7 $8 $9 X,Y pos of 4 corners*
0 Add a 4 corners polygon primitive as box body*
4,1,4,$2,$3,$4,$5,$6,$7,$8,$9,$2,$3,0*
0 Add four circle primitives for the rounded corners*
1,1,$1+$1,$2,$3*
1,1,$1+$1,$4,$5*
1,1,$1+$1,$6,$7*
1,1,$1+$1,$8,$9*
0 Add four rect primitives between the rounded corners*
20,1,$1+$1,$2,$3,$4,$5,0*
20,1,$1+$1,$4,$5,$6,$7,0*
20,1,$1+$1,$6,$7,$8,$9,0*
20,1,$1+$1,$8,$9,$2,$3,0*%
G04 Aperture macros list end*
%TA.AperFunction,SMDPad,CuDef*%
%ADD10RoundRect,0.218750X0.256250X-0.218750X0.256250X0.218750X-0.256250X0.218750X-0.256250X-0.218750X0*%
%TD*%
%TA.AperFunction,SMDPad,CuDef*%
%ADD11RoundRect,0.218750X0.061318X0.331294X-0.317568X0.112544X-0.061318X-0.331294X0.317568X-0.112544X0*%
%TD*%
%TA.AperFunction,SMDPad,CuDef*%
%ADD12RoundRect,0.218750X-0.317568X-0.112544X0.061318X-0.331294X0.317568X0.112544X-0.061318X0.331294X0*%
%TD*%
%TA.AperFunction,SMDPad,CuDef*%
%ADD13RoundRect,0.218750X-0.061318X-0.331294X0.317568X-0.112544X0.061318X0.331294X-0.317568X0.112544X0*%
%TD*%
%TA.AperFunction,ViaPad*%
%ADD14C,0.700000*%
%TD*%
%TA.AperFunction,Conductor*%
%ADD15C,0.400000*%
%TD*%
G04 APERTURE END LIST*
D10*
%TO.P,D6,2,A*%
%TO.N,Net-(D6-A)*%
X151400000Y-89212500D03*
%TO.P,D6,1,K*%
%TO.N,GND*%
X151400000Y-90787500D03*
%TD*%
%TO.P,D5,2,A*%
%TO.N,Net-(D5-A)*%
X114200000Y-88825000D03*
%TO.P,D5,1,K*%
%TO.N,GND*%
X114200000Y-90400000D03*
%TD*%
D11*
%TO.P,D4,2,A*%
%TO.N,Net-(D4-A)*%
X141318005Y-106393750D03*
%TO.P,D4,1,K*%
%TO.N,GND*%
X142681995Y-105606250D03*
%TD*%
D12*
%TO.P,D3,2,A*%
%TO.N,Net-(D3-A)*%
X124281995Y-106393750D03*
%TO.P,D3,1,K*%
%TO.N,GND*%
X122918005Y-105606250D03*
%TD*%
%TO.P,D2,2,A*%
%TO.N,Net-(D2-A)*%
X142481995Y-74193750D03*
%TO.P,D2,1,K*%
%TO.N,GND*%
X141118005Y-73406250D03*
%TD*%
D13*
%TO.P,D1,1,K*%
%TO.N,GND*%
X122918005Y-74393750D03*
%TO.P,D1,2,A*%
%TO.N,Net-(D1-A)*%
X124281995Y-73606250D03*
%TD*%
D14*
%TO.N,GND*%
X151400000Y-91800000D03*
X144400000Y-84400000D03*
X144600000Y-94600000D03*
%TO.N,Net-(D4-A)*%
X140200000Y-107200000D03*
%TO.N,Net-(D3-A)*%
X125000000Y-107000000D03*
%TO.N,Net-(D5-A)*%
X114200000Y-88000000D03*
%TO.N,Net-(D1-A)*%
X125200000Y-73000000D03*
%TO.N,Net-(D6-A)*%
X151400000Y-88200000D03*
%TO.N,Net-(D2-A)*%
X143600000Y-75000000D03*
%TD*%
D15*
%TO.N,GND*%
X151400000Y-90787500D02*
X151400000Y-91800000D01*
%TO.N,Net-(D4-A)*%
X140200000Y-107200000D02*
X140511755Y-107200000D01*
X140511755Y-107200000D02*
X141318005Y-106393750D01*
%TO.N,Net-(D3-A)*%
X125000000Y-107000000D02*
X124888245Y-107000000D01*
X124888245Y-107000000D02*
X124281995Y-106393750D01*
%TO.N,Net-(D5-A)*%
X114200000Y-88000000D02*
X114200000Y-88825000D01*
%TO.N,Net-(D1-A)*%
X124888245Y-73000000D02*
X124281995Y-73606250D01*
X125200000Y-73000000D02*
X124888245Y-73000000D01*
%TO.N,Net-(D6-A)*%
X151400000Y-88200000D02*
X151400000Y-89212500D01*
%TO.N,Net-(D2-A)*%
X143600000Y-75000000D02*
X143288245Y-75000000D01*
X143288245Y-75000000D02*
X142481995Y-74193750D01*
%TD*%
%TA.AperFunction,Conductor*%
%TO.N,GND*%
G36*
X140654552Y-70102508D02*
G01*
X140658628Y-70102779D01*
X141126885Y-70149574D01*
X141130875Y-70150106D01*
X141592041Y-70227190D01*
X141595974Y-70227981D01*
X142048706Y-70334598D01*
X142052575Y-70335644D01*
X142416469Y-70446864D01*
X142495560Y-70471038D01*
X142499378Y-70472342D01*
X142931377Y-70635778D01*
X142935071Y-70637314D01*
X143135527Y-70728408D01*
X143354746Y-70828029D01*
X143358344Y-70829807D01*
X143764447Y-71047075D01*
X143767900Y-71049068D01*
X144056843Y-71228589D01*
X144159104Y-71292125D01*
X144162439Y-71294349D01*
X144537471Y-71562462D01*
X144540624Y-71564874D01*
X144715723Y-71708075D01*
X144898166Y-71857282D01*
X144901203Y-71859936D01*
X145239941Y-72175867D01*
X145242807Y-72178720D01*
X145528292Y-72482184D01*
X145561470Y-72517451D01*
X145564148Y-72520491D01*
X145652825Y-72628105D01*
X145861456Y-72881291D01*
X145863954Y-72884534D01*
X146138584Y-73266619D01*
X146140868Y-73270029D01*
X146273007Y-73482280D01*
X146392642Y-73674446D01*
X153746795Y-86412221D01*
X153971148Y-86832477D01*
X153972965Y-86836170D01*
X154166542Y-87265039D01*
X154168100Y-87268819D01*
X154331899Y-87706675D01*
X154331902Y-87706681D01*
X154333202Y-87710538D01*
X154375825Y-87852170D01*
X154467220Y-88155869D01*
X154468259Y-88159780D01*
X154572498Y-88611125D01*
X154573278Y-88615083D01*
X154647734Y-89070895D01*
X154648250Y-89074859D01*
X154684917Y-89451447D01*
X154692924Y-89533677D01*
X154693183Y-89537681D01*
X154708075Y-89997994D01*
X154708075Y-90002004D01*
X154693183Y-90462318D01*
X154692924Y-90466322D01*
X154648251Y-90925136D01*
X154647734Y-90929104D01*
X154573278Y-91384916D01*
X154572498Y-91388874D01*
X154468259Y-91840219D01*
X154467219Y-91844135D01*
X154333202Y-92289461D01*
X154331902Y-92293319D01*
X154168100Y-92731179D01*
X154166540Y-92734963D01*
X153972961Y-93163837D01*
X153971151Y-93167517D01*
X153746788Y-93587792D01*
X146392642Y-106325552D01*
X146269311Y-106531183D01*
X146139791Y-106731697D01*
X146110676Y-106773650D01*
X146004216Y-106927052D01*
X145862761Y-107117128D01*
X145715589Y-107301830D01*
X145562866Y-107481064D01*
X145404770Y-107654722D01*
X145241401Y-107822771D01*
X145073032Y-107985011D01*
X144899716Y-108141451D01*
X144721697Y-108291924D01*
X144539084Y-108436383D01*
X144352084Y-108574699D01*
X144160803Y-108706818D01*
X143965468Y-108832603D01*
X143766201Y-108951987D01*
X143563191Y-109064858D01*
X143356577Y-109171137D01*
X143146559Y-109270712D01*
X142933250Y-109363511D01*
X142716844Y-109449427D01*
X142497505Y-109528365D01*
X142275398Y-109600230D01*
X142050663Y-109664937D01*
X141823507Y-109722376D01*
X141594047Y-109772469D01*
X141362429Y-109815119D01*
X141128893Y-109850221D01*
X140893559Y-109877687D01*
X140656595Y-109897421D01*
X140418194Y-109909330D01*
X140178457Y-109913322D01*
X140154914Y-109913115D01*
X140153822Y-109913330D01*
X125470116Y-109913330D01*
X124994011Y-109897496D01*
X124989906Y-109897223D01*
X124684350Y-109866687D01*
X124521688Y-109850431D01*
X124517651Y-109849892D01*
X124056530Y-109772815D01*
X124052550Y-109772015D01*
X124026104Y-109765787D01*
X123599860Y-109665408D01*
X123595955Y-109664353D01*
X123152975Y-109528961D01*
X123149169Y-109527661D01*
X122717168Y-109364223D01*
X122713474Y-109362687D01*
X122293791Y-109171968D01*
X122290201Y-109170194D01*
X121884086Y-108952919D01*
X121880613Y-108950913D01*
X121489434Y-108707869D01*
X121486096Y-108705642D01*
X121304003Y-108575463D01*
X121111080Y-108437541D01*
X121107918Y-108435121D01*
X120750380Y-108142717D01*
X120747342Y-108140063D01*
X120408615Y-107824139D01*
X120405744Y-107821280D01*
X120106004Y-107502665D01*
X120087074Y-107482542D01*
X120084388Y-107479492D01*
X120029130Y-107412434D01*
X119787077Y-107118689D01*
X119784604Y-107115477D01*
X119509964Y-106733376D01*
X119507685Y-106729975D01*
X119372683Y-106513124D01*
X122538758Y-106513124D01*
X122661420Y-106583942D01*
X122661440Y-106583952D01*
X122751704Y-106624456D01*
X122751703Y-106624456D01*
X122916252Y-106658432D01*
X123084198Y-106653547D01*
X123127758Y-106641875D01*
X123197608Y-106643538D01*
X123255471Y-106682700D01*
X123279628Y-106729556D01*
X123291443Y-106773653D01*
X123371243Y-106921649D01*
X123483017Y-107047249D01*
X123483024Y-107047255D01*
X123563296Y-107105219D01*
X123563299Y-107105221D01*
X124025191Y-107371895D01*
X124086931Y-107399599D01*
X124115531Y-107412433D01*
X124115532Y-107412433D01*
X124115536Y-107412435D01*
X124220573Y-107434122D01*
X124282244Y-107466954D01*
X124302882Y-107493557D01*
X124308141Y-107502665D01*
X124348807Y-107547829D01*
X124427764Y-107635521D01*
X124427767Y-107635523D01*
X124427770Y-107635526D01*
X124572407Y-107740612D01*
X124735733Y-107813329D01*
X124910609Y-107850500D01*
X124910610Y-107850500D01*
X125089389Y-107850500D01*
X125089391Y-107850500D01*
X125264267Y-107813329D01*
X125427593Y-107740612D01*
X125572230Y-107635526D01*
X125691859Y-107502665D01*
X125781250Y-107347835D01*
X125829285Y-107200000D01*
X139344815Y-107200000D01*
X139363503Y-107377805D01*
X139363504Y-107377807D01*
X139418747Y-107547829D01*
X139418750Y-107547835D01*
X139508141Y-107702665D01*
X139531116Y-107728181D01*
X139627764Y-107835521D01*
X139627767Y-107835523D01*
X139627770Y-107835526D01*
X139772407Y-107940612D01*
X139935733Y-108013329D01*
X140110609Y-108050500D01*
X140110610Y-108050500D01*
X140289389Y-108050500D01*
X140289391Y-108050500D01*
X140464267Y-108013329D01*
X140627593Y-107940612D01*
X140706118Y-107883559D01*
X140728101Y-107870808D01*
X140778283Y-107848222D01*
X140781652Y-107846826D01*
X140839685Y-107824818D01*
X140848021Y-107819062D01*
X140867576Y-107808034D01*
X140876812Y-107803878D01*
X140925651Y-107765613D01*
X140928631Y-107763421D01*
X140979684Y-107728183D01*
X141020820Y-107681748D01*
X141023354Y-107679056D01*
X141219961Y-107482449D01*
X141281282Y-107448966D01*
X141311252Y-107446185D01*
X141319801Y-107446434D01*
X141319801Y-107446433D01*
X141319802Y-107446434D01*
X141379440Y-107434120D01*
X141484464Y-107412435D01*
X141574809Y-107371895D01*
X142036701Y-107105221D01*
X142116982Y-107047250D01*
X142228758Y-106921647D01*
X142308556Y-106773653D01*
X142320370Y-106729559D01*
X142356734Y-106669898D01*
X142419581Y-106639367D01*
X142472240Y-106641875D01*
X142515800Y-106653547D01*
X142683748Y-106658433D01*
X142848295Y-106624456D01*
X142938568Y-106583948D01*
X142938584Y-106583940D01*
X143061240Y-106513124D01*
X143061240Y-106513123D01*
X142564072Y-105652003D01*
X142852747Y-105652003D01*
X143277746Y-106388123D01*
X143277747Y-106388123D01*
X143400414Y-106317301D01*
X143480636Y-106259374D01*
X143480638Y-106259373D01*
X143592334Y-106133860D01*
X143672079Y-105985967D01*
X143715566Y-105823672D01*
X143720452Y-105655722D01*
X143686475Y-105491175D01*
X143645970Y-105400908D01*
X143645961Y-105400889D01*
X143556393Y-105245753D01*
X143556392Y-105245753D01*
X142852747Y-105652002D01*
X142852747Y-105652003D01*
X142564072Y-105652003D01*
X142519405Y-105574637D01*
X142519403Y-105574631D01*
X142086242Y-104824375D01*
X142086241Y-104824375D01*
X141963575Y-104895198D01*
X141883353Y-104953125D01*
X141883351Y-104953126D01*
X141771655Y-105078639D01*
X141691911Y-105226531D01*
X141680239Y-105270091D01*
X141643873Y-105329751D01*
X141581026Y-105360279D01*
X141528371Y-105357771D01*
X141484279Y-105345957D01*
X141484278Y-105345956D01*
X141484275Y-105345956D01*
X141316209Y-105341066D01*
X141316208Y-105341066D01*
X141316206Y-105341066D01*
X141151547Y-105375064D01*
X141151544Y-105375065D01*
X141061220Y-105415596D01*
X141061194Y-105415608D01*
X140599306Y-105682280D01*
X140519034Y-105740244D01*
X140519027Y-105740250D01*
X140407253Y-105865850D01*
X140327453Y-106013847D01*
X140283938Y-106176249D01*
X140283937Y-106176254D01*
X140282399Y-106229109D01*
X140260773Y-106295545D01*
X140206661Y-106339745D01*
X140158452Y-106349500D01*
X140110609Y-106349500D01*
X140079954Y-106356015D01*
X139935733Y-106386670D01*
X139935728Y-106386672D01*
X139772408Y-106459387D01*
X139627768Y-106564475D01*
X139508140Y-106697336D01*
X139418750Y-106852164D01*
X139418747Y-106852170D01*
X139363504Y-107022192D01*
X139363503Y-107022194D01*
X139344815Y-107200000D01*
X125829285Y-107200000D01*
X125836497Y-107177803D01*
X125855185Y-107000000D01*
X125836497Y-106822197D01*
X125795927Y-106697335D01*
X125781252Y-106652170D01*
X125781249Y-106652164D01*
X125741867Y-106583952D01*
X125691859Y-106497335D01*
X125643097Y-106443180D01*
X125572235Y-106364478D01*
X125572232Y-106364476D01*
X125572231Y-106364475D01*
X125572230Y-106364474D01*
X125427593Y-106259388D01*
X125427592Y-106259387D01*
X125380279Y-106238322D01*
X125327042Y-106193072D01*
X125310940Y-106157136D01*
X125304703Y-106133860D01*
X125272546Y-106013847D01*
X125192748Y-105865853D01*
X125192747Y-105865851D01*
X125192746Y-105865850D01*
X125080972Y-105740250D01*
X125080965Y-105740244D01*
X125000693Y-105682280D01*
X124538805Y-105415608D01*
X124538779Y-105415596D01*
X124448455Y-105375065D01*
X124448452Y-105375064D01*
X124283793Y-105341066D01*
X124283791Y-105341066D01*
X124115725Y-105345956D01*
X124115721Y-105345956D01*
X124115719Y-105345957D01*
X124071627Y-105357771D01*
X124001777Y-105356108D01*
X123943915Y-105316944D01*
X123919760Y-105270088D01*
X123908090Y-105226533D01*
X123828344Y-105078638D01*
X123828342Y-105078636D01*
X123716653Y-104953130D01*
X123716645Y-104953123D01*
X123636431Y-104895201D01*
X123636414Y-104895190D01*
X123513757Y-104824375D01*
X123513756Y-104824375D01*
X123067711Y-105596949D01*
X123067711Y-105596950D01*
X122538758Y-106513123D01*
X122538758Y-106513124D01*
X119372683Y-106513124D01*
X119255909Y-106325552D01*
X118869183Y-105655722D01*
X121879547Y-105655722D01*
X121884433Y-105823672D01*
X121927920Y-105985967D01*
X122007665Y-106133861D01*
X122007667Y-106133863D01*
X122119356Y-106259369D01*
X122119364Y-106259376D01*
X122199580Y-106317299D01*
X122322252Y-106388123D01*
X122747251Y-105652003D01*
X122747251Y-105652002D01*
X122043607Y-105245752D01*
X122043605Y-105245753D01*
X121954040Y-105400886D01*
X121954033Y-105400900D01*
X121913524Y-105491175D01*
X121879547Y-105655722D01*
X118869183Y-105655722D01*
X118507488Y-105029247D01*
X122168606Y-105029247D01*
X122872250Y-105435495D01*
X122872251Y-105435495D01*
X123297250Y-104699375D01*
X142302748Y-104699375D01*
X142727747Y-105435495D01*
X142727748Y-105435495D01*
X143431392Y-105029247D01*
X143431392Y-105029246D01*
X143341824Y-104874108D01*
X143341823Y-104874107D01*
X143283893Y-104793882D01*
X143283892Y-104793880D01*
X143158379Y-104682184D01*
X143010486Y-104602439D01*
X142848191Y-104558952D01*
X142680241Y-104554066D01*
X142515694Y-104588043D01*
X142425416Y-104628553D01*
X142425404Y-104628559D01*
X142302748Y-104699374D01*
X142302748Y-104699375D01*
X123297250Y-104699375D01*
X123297250Y-104699374D01*
X123174594Y-104628559D01*
X123174580Y-104628552D01*
X123084305Y-104588043D01*
X123084306Y-104588043D01*
X122919756Y-104554066D01*
X122751808Y-104558952D01*
X122589513Y-104602439D01*
X122441619Y-104682184D01*
X122441617Y-104682186D01*
X122316111Y-104793875D01*
X122316108Y-104793879D01*
X122258176Y-104874106D01*
X122168606Y-105029246D01*
X122168606Y-105029247D01*
X118507488Y-105029247D01*
X111901755Y-93587779D01*
X111677408Y-93167534D01*
X111675606Y-93163872D01*
X111482010Y-92734962D01*
X111480453Y-92731187D01*
X111316637Y-92293286D01*
X111315350Y-92289465D01*
X111181332Y-91844130D01*
X111180292Y-91840215D01*
X111076053Y-91388874D01*
X111075273Y-91384916D01*
X111067528Y-91337499D01*
X111000815Y-90929081D01*
X111000304Y-90925166D01*
X110961341Y-90525000D01*
X113225001Y-90525000D01*
X113225001Y-90666652D01*
X113235056Y-90765083D01*
X113287906Y-90924572D01*
X113287908Y-90924577D01*
X113376114Y-91067580D01*
X113494919Y-91186385D01*
X113637922Y-91274591D01*
X113637927Y-91274593D01*
X113797416Y-91327442D01*
X113895855Y-91337499D01*
X114074999Y-91337499D01*
X114075000Y-91337498D01*
X114075000Y-90525000D01*
X114324999Y-90525000D01*
X114324999Y-91337498D01*
X114325000Y-91337499D01*
X114504136Y-91337499D01*
X114504152Y-91337498D01*
X114602583Y-91327443D01*
X114762072Y-91274593D01*
X114762077Y-91274591D01*
X114905080Y-91186385D01*
X115023885Y-91067580D01*
X115112091Y-90924577D01*
X115112093Y-90924572D01*
X115116093Y-90912500D01*
X150425001Y-90912500D01*
X150425001Y-91054152D01*
X150435056Y-91152583D01*
X150487906Y-91312072D01*
X150487908Y-91312077D01*
X150576114Y-91455080D01*
X150694919Y-91573885D01*
X150837922Y-91662091D01*
X150837927Y-91662093D01*
X150997416Y-91714942D01*
X151095855Y-91724999D01*
X151274999Y-91724999D01*
X151275000Y-91724998D01*
X151275000Y-90912500D01*
X151525000Y-90912500D01*
X151525000Y-91724999D01*
X151704136Y-91724999D01*
X151704152Y-91724998D01*
X151802583Y-91714943D01*
X151962072Y-91662093D01*
X151962077Y-91662091D01*
X152105080Y-91573885D01*
X152223885Y-91455080D01*
X152312091Y-91312077D01*
X152312093Y-91312072D01*
X152364942Y-91152583D01*
X152374999Y-91054150D01*
X152375000Y-91054137D01*
X152375000Y-90912500D01*
X151525000Y-90912500D01*
X151275000Y-90912500D01*
X150425001Y-90912500D01*
X115116093Y-90912500D01*
X115164942Y-90765083D01*
X115174999Y-90666650D01*
X115175000Y-90666637D01*
X115175000Y-90525000D01*
X114324999Y-90525000D01*
X114075000Y-90525000D01*
X113225001Y-90525000D01*
X110961341Y-90525000D01*
X110955625Y-90466299D01*
X110955368Y-90462317D01*
X110949308Y-90275000D01*
X110940476Y-90001978D01*
X110940476Y-89998021D01*
X110955368Y-89537674D01*
X110955625Y-89533702D01*
X110998663Y-89091681D01*
X113224500Y-89091681D01*
X113234563Y-89190183D01*
X113287450Y-89349784D01*
X113287455Y-89349795D01*
X113375716Y-89492887D01*
X113375719Y-89492892D01*
X113408000Y-89525173D01*
X113441485Y-89586497D01*
X113436499Y-89656188D01*
X113408000Y-89700533D01*
X113376114Y-89732419D01*
X113287908Y-89875422D01*
X113287906Y-89875427D01*
X113235057Y-90034916D01*
X113225000Y-90133349D01*
X113225000Y-90275000D01*
X115174998Y-90275000D01*
X115174999Y-90133364D01*
X115174998Y-90133347D01*
X115164943Y-90034916D01*
X115112093Y-89875427D01*
X115112091Y-89875422D01*
X115023885Y-89732419D01*
X114992000Y-89700534D01*
X114958515Y-89639211D01*
X114963499Y-89569519D01*
X114992000Y-89525172D01*
X114992000Y-89525171D01*
X115024281Y-89492891D01*
X115032737Y-89479181D01*
X150424500Y-89479181D01*
X150434563Y-89577683D01*
X150487450Y-89737284D01*
X150487455Y-89737295D01*
X150575716Y-89880387D01*
X150575719Y-89880392D01*
X150608000Y-89912673D01*
X150641485Y-89973997D01*
X150636499Y-90043688D01*
X150608000Y-90088033D01*
X150576114Y-90119919D01*
X150487908Y-90262922D01*
X150487906Y-90262927D01*
X150435057Y-90422416D01*
X150425000Y-90520849D01*
X150425000Y-90662500D01*
X152374999Y-90662500D01*
X152374999Y-90520864D01*
X152374998Y-90520847D01*
X152364943Y-90422416D01*
X152312093Y-90262927D01*
X152312091Y-90262922D01*
X152223885Y-90119919D01*
X152192000Y-90088034D01*
X152158515Y-90026711D01*
X152163499Y-89957019D01*
X152192000Y-89912672D01*
X152224281Y-89880391D01*
X152312549Y-89737287D01*
X152365436Y-89577685D01*
X152375500Y-89479174D01*
X152375500Y-88945826D01*
X152365436Y-88847315D01*
X152312549Y-88687713D01*
X152312545Y-88687707D01*
X152312544Y-88687704D01*
X152226908Y-88548868D01*
X152208467Y-88481476D01*
X152214516Y-88445451D01*
X152236495Y-88377808D01*
X152236497Y-88377803D01*
X152255185Y-88200000D01*
X152236497Y-88022197D01*
X152181250Y-87852165D01*
X152091859Y-87697335D01*
X152045003Y-87645296D01*
X151972235Y-87564478D01*
X151972232Y-87564476D01*
X151972231Y-87564475D01*
X151972230Y-87564474D01*
X151827593Y-87459388D01*
X151664267Y-87386671D01*
X151664265Y-87386670D01*
X151536594Y-87359533D01*
X151489391Y-87349500D01*
X151310609Y-87349500D01*
X151279954Y-87356015D01*
X151135733Y-87386670D01*
X151135728Y-87386672D01*
X150972408Y-87459387D01*
X150827768Y-87564475D01*
X150708140Y-87697336D01*
X150618750Y-87852164D01*
X150618747Y-87852170D01*
X150563504Y-88022192D01*
X150563503Y-88022194D01*
X150544815Y-88199999D01*
X150563503Y-88377805D01*
X150563504Y-88377807D01*
X150585484Y-88445453D01*
X150587479Y-88515294D01*
X150573092Y-88548868D01*
X150487452Y-88687710D01*
X150487450Y-88687713D01*
X150487451Y-88687713D01*
X150434564Y-88847315D01*
X150434564Y-88847316D01*
X150434563Y-88847316D01*
X150424500Y-88945818D01*
X150424500Y-89479181D01*
X115032737Y-89479181D01*
X115112549Y-89349787D01*
X115165436Y-89190185D01*
X115175500Y-89091674D01*
X115175500Y-88558326D01*
X115165436Y-88459815D01*
X115112549Y-88300213D01*
X115112547Y-88300210D01*
X115112546Y-88300207D01*
X115058780Y-88213041D01*
X115040339Y-88145649D01*
X115040997Y-88134981D01*
X115055185Y-88000000D01*
X115036497Y-87822197D01*
X114999509Y-87708360D01*
X114981252Y-87652170D01*
X114981249Y-87652164D01*
X114891859Y-87497335D01*
X114845003Y-87445296D01*
X114772235Y-87364478D01*
X114772232Y-87364476D01*
X114772231Y-87364475D01*
X114772230Y-87364474D01*
X114627593Y-87259388D01*
X114464267Y-87186671D01*
X114464265Y-87186670D01*
X114336594Y-87159533D01*
X114289391Y-87149500D01*
X114110609Y-87149500D01*
X114079954Y-87156015D01*
X113935733Y-87186670D01*
X113935728Y-87186672D01*
X113772408Y-87259387D01*
X113627768Y-87364475D01*
X113508140Y-87497336D01*
X113418750Y-87652164D01*
X113418747Y-87652170D01*
X113363504Y-87822192D01*
X113363503Y-87822194D01*
X113344815Y-88000000D01*
X113359002Y-88134981D01*
X113346432Y-88203710D01*
X113341220Y-88213038D01*
X113287454Y-88300206D01*
X113287451Y-88300214D01*
X113234564Y-88459815D01*
X113234564Y-88459816D01*
X113234563Y-88459816D01*
X113224500Y-88558318D01*
X113224500Y-89091681D01*
X110998663Y-89091681D01*
X111000304Y-89074829D01*
X111000813Y-89070922D01*
X111075274Y-88615068D01*
X111076052Y-88611125D01*
X111180291Y-88159784D01*
X111181331Y-88155869D01*
X111221560Y-88022192D01*
X111315351Y-87710526D01*
X111316633Y-87706722D01*
X111480456Y-87268801D01*
X111482009Y-87265037D01*
X111675610Y-86836115D01*
X111677401Y-86832477D01*
X111901755Y-86412221D01*
X118507490Y-74970752D01*
X122168606Y-74970752D01*
X122258175Y-75125890D01*
X122258176Y-75125892D01*
X122316106Y-75206117D01*
X122316107Y-75206119D01*
X122441620Y-75317815D01*
X122589513Y-75397560D01*
X122751808Y-75441047D01*
X122919758Y-75445933D01*
X123084305Y-75411956D01*
X123174578Y-75371448D01*
X123174585Y-75371445D01*
X123297250Y-75300623D01*
X122872251Y-74564503D01*
X122872250Y-74564503D01*
X122168606Y-74970751D01*
X122168606Y-74970752D01*
X118507490Y-74970752D01*
X118869186Y-74344277D01*
X121879547Y-74344277D01*
X121913524Y-74508824D01*
X121954034Y-74599102D01*
X121954040Y-74599114D01*
X122043605Y-74754245D01*
X122043606Y-74754245D01*
X122747251Y-74347996D01*
X122747251Y-74347995D01*
X122322252Y-73611875D01*
X122322251Y-73611875D01*
X122199585Y-73682698D01*
X122119363Y-73740625D01*
X122119361Y-73740626D01*
X122007665Y-73866139D01*
X121927920Y-74014032D01*
X121884433Y-74176327D01*
X121879547Y-74344277D01*
X118869186Y-74344277D01*
X119255913Y-73674446D01*
X119368410Y-73486875D01*
X122538758Y-73486875D01*
X123018447Y-74317721D01*
X123056681Y-74383945D01*
X123513756Y-75175623D01*
X123513757Y-75175623D01*
X123636424Y-75104801D01*
X123716646Y-75046874D01*
X123716648Y-75046873D01*
X123828344Y-74921360D01*
X123908089Y-74773466D01*
X123919760Y-74729911D01*
X123956124Y-74670250D01*
X124018970Y-74639720D01*
X124071626Y-74642227D01*
X124115725Y-74654044D01*
X124283791Y-74658934D01*
X124448454Y-74624935D01*
X124538799Y-74584395D01*
X125000691Y-74317721D01*
X125007057Y-74313124D01*
X140738758Y-74313124D01*
X140861420Y-74383942D01*
X140861440Y-74383952D01*
X140951704Y-74424456D01*
X140951703Y-74424456D01*
X141116252Y-74458432D01*
X141284198Y-74453547D01*
X141327758Y-74441875D01*
X141397608Y-74443538D01*
X141455471Y-74482700D01*
X141479628Y-74529556D01*
X141491443Y-74573653D01*
X141571243Y-74721649D01*
X141683017Y-74847249D01*
X141683024Y-74847255D01*
X141763296Y-74905219D01*
X141763299Y-74905221D01*
X142225191Y-75171895D01*
X142315536Y-75212435D01*
X142370423Y-75223767D01*
X142480197Y-75246434D01*
X142480198Y-75246433D01*
X142480199Y-75246434D01*
X142488744Y-75246185D01*
X142556328Y-75263906D01*
X142580038Y-75282451D01*
X142776644Y-75479056D01*
X142779180Y-75481750D01*
X142820316Y-75528183D01*
X142871375Y-75563427D01*
X142874357Y-75565621D01*
X142923189Y-75603878D01*
X142923192Y-75603880D01*
X142923191Y-75603880D01*
X142932422Y-75608034D01*
X142951976Y-75619062D01*
X142960311Y-75624816D01*
X142960313Y-75624816D01*
X142960315Y-75624818D01*
X143018312Y-75646812D01*
X143021733Y-75648229D01*
X143071899Y-75670807D01*
X143093884Y-75683560D01*
X143172407Y-75740612D01*
X143335733Y-75813329D01*
X143510609Y-75850500D01*
X143510610Y-75850500D01*
X143689389Y-75850500D01*
X143689391Y-75850500D01*
X143864267Y-75813329D01*
X144027593Y-75740612D01*
X144172230Y-75635526D01*
X144181874Y-75624816D01*
X144235159Y-75565636D01*
X144291859Y-75502665D01*
X144381250Y-75347835D01*
X144436497Y-75177803D01*
X144455185Y-75000000D01*
X144436497Y-74822197D01*
X144387126Y-74670250D01*
X144381252Y-74652170D01*
X144381249Y-74652164D01*
X144291859Y-74497335D01*
X144241922Y-74441875D01*
X144172235Y-74364478D01*
X144172232Y-74364476D01*
X144172231Y-74364475D01*
X144172230Y-74364474D01*
X144027593Y-74259388D01*
X143864267Y-74186671D01*
X143864265Y-74186670D01*
X143736594Y-74159533D01*
X143689391Y-74149500D01*
X143689390Y-74149500D01*
X143641548Y-74149500D01*
X143574509Y-74129815D01*
X143528754Y-74077011D01*
X143517600Y-74029110D01*
X143516063Y-73976254D01*
X143472546Y-73813847D01*
X143392748Y-73665853D01*
X143392747Y-73665851D01*
X143392746Y-73665850D01*
X143280972Y-73540250D01*
X143280965Y-73540244D01*
X143200693Y-73482280D01*
X142738805Y-73215608D01*
X142738779Y-73215596D01*
X142648455Y-73175065D01*
X142648452Y-73175064D01*
X142483793Y-73141066D01*
X142483791Y-73141066D01*
X142315725Y-73145956D01*
X142315721Y-73145956D01*
X142315719Y-73145957D01*
X142271627Y-73157771D01*
X142201777Y-73156108D01*
X142143915Y-73116944D01*
X142119760Y-73070088D01*
X142108090Y-73026533D01*
X142028344Y-72878638D01*
X142028342Y-72878636D01*
X141916653Y-72753130D01*
X141916645Y-72753123D01*
X141836431Y-72695201D01*
X141836414Y-72695190D01*
X141713757Y-72624375D01*
X141713756Y-72624375D01*
X141267711Y-73396949D01*
X141267711Y-73396950D01*
X140738758Y-74313123D01*
X140738758Y-74313124D01*
X125007057Y-74313124D01*
X125080972Y-74259750D01*
X125192748Y-74134147D01*
X125272546Y-73986153D01*
X125290405Y-73919501D01*
X125326769Y-73859842D01*
X125384399Y-73830305D01*
X125464267Y-73813329D01*
X125627593Y-73740612D01*
X125772230Y-73635526D01*
X125782904Y-73623672D01*
X125843097Y-73556820D01*
X125891859Y-73502665D01*
X125918962Y-73455722D01*
X140079547Y-73455722D01*
X140084433Y-73623672D01*
X140127920Y-73785967D01*
X140207665Y-73933861D01*
X140207667Y-73933863D01*
X140319356Y-74059369D01*
X140319364Y-74059376D01*
X140399580Y-74117299D01*
X140522252Y-74188123D01*
X140947251Y-73452003D01*
X140947251Y-73452002D01*
X140243607Y-73045752D01*
X140243605Y-73045753D01*
X140154040Y-73200886D01*
X140154033Y-73200900D01*
X140113524Y-73291175D01*
X140079547Y-73455722D01*
X125918962Y-73455722D01*
X125981250Y-73347835D01*
X126036497Y-73177803D01*
X126055185Y-73000000D01*
X126037238Y-72829247D01*
X140368606Y-72829247D01*
X141072250Y-73235495D01*
X141072251Y-73235495D01*
X141497250Y-72499375D01*
X141497250Y-72499374D01*
X141374594Y-72428559D01*
X141374580Y-72428552D01*
X141284305Y-72388043D01*
X141284306Y-72388043D01*
X141119756Y-72354066D01*
X140951808Y-72358952D01*
X140789513Y-72402439D01*
X140641619Y-72482184D01*
X140641617Y-72482186D01*
X140516111Y-72593875D01*
X140516108Y-72593879D01*
X140458176Y-72674106D01*
X140368606Y-72829246D01*
X140368606Y-72829247D01*
X126037238Y-72829247D01*
X126036497Y-72822197D01*
X125996015Y-72697606D01*
X125981252Y-72652170D01*
X125981249Y-72652164D01*
X125891859Y-72497335D01*
X125829933Y-72428559D01*
X125772235Y-72364478D01*
X125772232Y-72364476D01*
X125772231Y-72364475D01*
X125772230Y-72364474D01*
X125627593Y-72259388D01*
X125464267Y-72186671D01*
X125464265Y-72186670D01*
X125336594Y-72159533D01*
X125289391Y-72149500D01*
X125110609Y-72149500D01*
X125079954Y-72156015D01*
X124935733Y-72186670D01*
X124935728Y-72186672D01*
X124772408Y-72259388D01*
X124772403Y-72259390D01*
X124693884Y-72316438D01*
X124671888Y-72329196D01*
X124621750Y-72351761D01*
X124618291Y-72353193D01*
X124560315Y-72375181D01*
X124560311Y-72375184D01*
X124551968Y-72380942D01*
X124532433Y-72391960D01*
X124523193Y-72396119D01*
X124523184Y-72396124D01*
X124474369Y-72434368D01*
X124471354Y-72436586D01*
X124420315Y-72471817D01*
X124384643Y-72512081D01*
X124325452Y-72549206D01*
X124288228Y-72553799D01*
X124280197Y-72553565D01*
X124115535Y-72587565D01*
X124115534Y-72587565D01*
X124025210Y-72628096D01*
X124025184Y-72628108D01*
X123563296Y-72894780D01*
X123483024Y-72952744D01*
X123483017Y-72952750D01*
X123371243Y-73078350D01*
X123291443Y-73226346D01*
X123279628Y-73270443D01*
X123243262Y-73330103D01*
X123180415Y-73360632D01*
X123127761Y-73358124D01*
X123084202Y-73346452D01*
X122916251Y-73341566D01*
X122751704Y-73375543D01*
X122661426Y-73416053D01*
X122661414Y-73416059D01*
X122538758Y-73486874D01*
X122538758Y-73486875D01*
X119368410Y-73486875D01*
X119379237Y-73468823D01*
X119508776Y-73268279D01*
X119644337Y-73072947D01*
X119785792Y-72882871D01*
X119932963Y-72698169D01*
X120085686Y-72518935D01*
X120243781Y-72345278D01*
X120407119Y-72177258D01*
X120575537Y-72014973D01*
X120748820Y-71858562D01*
X120926856Y-71708075D01*
X121109468Y-71563616D01*
X121296469Y-71425299D01*
X121487750Y-71293180D01*
X121683085Y-71167395D01*
X121882352Y-71048011D01*
X122085349Y-70935147D01*
X122291965Y-70828867D01*
X122501995Y-70729286D01*
X122715326Y-70636477D01*
X122931699Y-70550574D01*
X123151050Y-70471632D01*
X123373157Y-70399767D01*
X123597885Y-70335062D01*
X123825048Y-70277620D01*
X124054509Y-70227527D01*
X124286126Y-70184877D01*
X124519666Y-70149775D01*
X124754996Y-70122310D01*
X124991960Y-70102575D01*
X125230361Y-70090666D01*
X125470112Y-70086674D01*
X140178434Y-70086674D01*
X140654552Y-70102508D01*
G37*
%TD.AperFunction*%
%TD*%
M02*
