%TF.GenerationSoftware,KiCad,Pcbnew,7.0.7*%
%TF.CreationDate,2023-09-02T14:38:41-07:00*%
%TF.ProjectId,badgelife101,62616467-656c-4696-9665-3130312e6b69,rev?*%
%TF.SameCoordinates,Original*%
%TF.FileFunction,Legend,Bot*%
%TF.FilePolarity,Positive*%
%FSLAX46Y46*%
G04 Gerber Fmt 4.6, Leading zero omitted, Abs format (unit mm)*
G04 Created by KiCad (PCBNEW 7.0.7) date 2023-09-02 14:38:41*
%MOMM*%
%LPD*%
G01*
G04 APERTURE LIST*
%ADD10C,0.150000*%
%ADD11C,0.010000*%
%ADD12C,0.120000*%
G04 APERTURE END LIST*
D10*
X143863220Y-84669819D02*
X143863220Y-83669819D01*
X143434649Y-84669819D02*
X143434649Y-84146009D01*
X143434649Y-84146009D02*
X143482268Y-84050771D01*
X143482268Y-84050771D02*
X143577506Y-84003152D01*
X143577506Y-84003152D02*
X143720363Y-84003152D01*
X143720363Y-84003152D02*
X143815601Y-84050771D01*
X143815601Y-84050771D02*
X143863220Y-84098390D01*
X143101315Y-84003152D02*
X142720363Y-84003152D01*
X142958458Y-83669819D02*
X142958458Y-84526961D01*
X142958458Y-84526961D02*
X142910839Y-84622200D01*
X142910839Y-84622200D02*
X142815601Y-84669819D01*
X142815601Y-84669819D02*
X142720363Y-84669819D01*
X142529886Y-84003152D02*
X142148934Y-84003152D01*
X142387029Y-83669819D02*
X142387029Y-84526961D01*
X142387029Y-84526961D02*
X142339410Y-84622200D01*
X142339410Y-84622200D02*
X142244172Y-84669819D01*
X142244172Y-84669819D02*
X142148934Y-84669819D01*
X141815600Y-84003152D02*
X141815600Y-85003152D01*
X141815600Y-84050771D02*
X141720362Y-84003152D01*
X141720362Y-84003152D02*
X141529886Y-84003152D01*
X141529886Y-84003152D02*
X141434648Y-84050771D01*
X141434648Y-84050771D02*
X141387029Y-84098390D01*
X141387029Y-84098390D02*
X141339410Y-84193628D01*
X141339410Y-84193628D02*
X141339410Y-84479342D01*
X141339410Y-84479342D02*
X141387029Y-84574580D01*
X141387029Y-84574580D02*
X141434648Y-84622200D01*
X141434648Y-84622200D02*
X141529886Y-84669819D01*
X141529886Y-84669819D02*
X141720362Y-84669819D01*
X141720362Y-84669819D02*
X141815600Y-84622200D01*
X140958457Y-84622200D02*
X140863219Y-84669819D01*
X140863219Y-84669819D02*
X140672743Y-84669819D01*
X140672743Y-84669819D02*
X140577505Y-84622200D01*
X140577505Y-84622200D02*
X140529886Y-84526961D01*
X140529886Y-84526961D02*
X140529886Y-84479342D01*
X140529886Y-84479342D02*
X140577505Y-84384104D01*
X140577505Y-84384104D02*
X140672743Y-84336485D01*
X140672743Y-84336485D02*
X140815600Y-84336485D01*
X140815600Y-84336485D02*
X140910838Y-84288866D01*
X140910838Y-84288866D02*
X140958457Y-84193628D01*
X140958457Y-84193628D02*
X140958457Y-84146009D01*
X140958457Y-84146009D02*
X140910838Y-84050771D01*
X140910838Y-84050771D02*
X140815600Y-84003152D01*
X140815600Y-84003152D02*
X140672743Y-84003152D01*
X140672743Y-84003152D02*
X140577505Y-84050771D01*
X140101314Y-84574580D02*
X140053695Y-84622200D01*
X140053695Y-84622200D02*
X140101314Y-84669819D01*
X140101314Y-84669819D02*
X140148933Y-84622200D01*
X140148933Y-84622200D02*
X140101314Y-84574580D01*
X140101314Y-84574580D02*
X140101314Y-84669819D01*
X140101314Y-84050771D02*
X140053695Y-84098390D01*
X140053695Y-84098390D02*
X140101314Y-84146009D01*
X140101314Y-84146009D02*
X140148933Y-84098390D01*
X140148933Y-84098390D02*
X140101314Y-84050771D01*
X140101314Y-84050771D02*
X140101314Y-84146009D01*
X138910839Y-83622200D02*
X139767981Y-84907914D01*
X137863220Y-83622200D02*
X138720362Y-84907914D01*
X137006077Y-84669819D02*
X137577505Y-84669819D01*
X137291791Y-84669819D02*
X137291791Y-83669819D01*
X137291791Y-83669819D02*
X137387029Y-83812676D01*
X137387029Y-83812676D02*
X137482267Y-83907914D01*
X137482267Y-83907914D02*
X137577505Y-83955533D01*
X136672743Y-83669819D02*
X136053696Y-83669819D01*
X136053696Y-83669819D02*
X136387029Y-84050771D01*
X136387029Y-84050771D02*
X136244172Y-84050771D01*
X136244172Y-84050771D02*
X136148934Y-84098390D01*
X136148934Y-84098390D02*
X136101315Y-84146009D01*
X136101315Y-84146009D02*
X136053696Y-84241247D01*
X136053696Y-84241247D02*
X136053696Y-84479342D01*
X136053696Y-84479342D02*
X136101315Y-84574580D01*
X136101315Y-84574580D02*
X136148934Y-84622200D01*
X136148934Y-84622200D02*
X136244172Y-84669819D01*
X136244172Y-84669819D02*
X136529886Y-84669819D01*
X136529886Y-84669819D02*
X136625124Y-84622200D01*
X136625124Y-84622200D02*
X136672743Y-84574580D01*
X135720362Y-83669819D02*
X135101315Y-83669819D01*
X135101315Y-83669819D02*
X135434648Y-84050771D01*
X135434648Y-84050771D02*
X135291791Y-84050771D01*
X135291791Y-84050771D02*
X135196553Y-84098390D01*
X135196553Y-84098390D02*
X135148934Y-84146009D01*
X135148934Y-84146009D02*
X135101315Y-84241247D01*
X135101315Y-84241247D02*
X135101315Y-84479342D01*
X135101315Y-84479342D02*
X135148934Y-84574580D01*
X135148934Y-84574580D02*
X135196553Y-84622200D01*
X135196553Y-84622200D02*
X135291791Y-84669819D01*
X135291791Y-84669819D02*
X135577505Y-84669819D01*
X135577505Y-84669819D02*
X135672743Y-84622200D01*
X135672743Y-84622200D02*
X135720362Y-84574580D01*
X134767981Y-83669819D02*
X134101315Y-83669819D01*
X134101315Y-83669819D02*
X134529886Y-84669819D01*
X133720362Y-84574580D02*
X133672743Y-84622200D01*
X133672743Y-84622200D02*
X133720362Y-84669819D01*
X133720362Y-84669819D02*
X133767981Y-84622200D01*
X133767981Y-84622200D02*
X133720362Y-84574580D01*
X133720362Y-84574580D02*
X133720362Y-84669819D01*
X133387029Y-84003152D02*
X133006077Y-84003152D01*
X133244172Y-84669819D02*
X133244172Y-83812676D01*
X133244172Y-83812676D02*
X133196553Y-83717438D01*
X133196553Y-83717438D02*
X133101315Y-83669819D01*
X133101315Y-83669819D02*
X133006077Y-83669819D01*
X132767981Y-84003152D02*
X132529886Y-84669819D01*
X132291791Y-84003152D02*
X132529886Y-84669819D01*
X132529886Y-84669819D02*
X132625124Y-84907914D01*
X132625124Y-84907914D02*
X132672743Y-84955533D01*
X132672743Y-84955533D02*
X132767981Y-85003152D01*
X131910838Y-84669819D02*
X131910838Y-84003152D01*
X131910838Y-83669819D02*
X131958457Y-83717438D01*
X131958457Y-83717438D02*
X131910838Y-83765057D01*
X131910838Y-83765057D02*
X131863219Y-83717438D01*
X131863219Y-83717438D02*
X131910838Y-83669819D01*
X131910838Y-83669819D02*
X131910838Y-83765057D01*
X130720363Y-83622200D02*
X131577505Y-84907914D01*
X130387029Y-84669819D02*
X130387029Y-83669819D01*
X130387029Y-84050771D02*
X130291791Y-84003152D01*
X130291791Y-84003152D02*
X130101315Y-84003152D01*
X130101315Y-84003152D02*
X130006077Y-84050771D01*
X130006077Y-84050771D02*
X129958458Y-84098390D01*
X129958458Y-84098390D02*
X129910839Y-84193628D01*
X129910839Y-84193628D02*
X129910839Y-84479342D01*
X129910839Y-84479342D02*
X129958458Y-84574580D01*
X129958458Y-84574580D02*
X130006077Y-84622200D01*
X130006077Y-84622200D02*
X130101315Y-84669819D01*
X130101315Y-84669819D02*
X130291791Y-84669819D01*
X130291791Y-84669819D02*
X130387029Y-84622200D01*
X129053696Y-84669819D02*
X129053696Y-84146009D01*
X129053696Y-84146009D02*
X129101315Y-84050771D01*
X129101315Y-84050771D02*
X129196553Y-84003152D01*
X129196553Y-84003152D02*
X129387029Y-84003152D01*
X129387029Y-84003152D02*
X129482267Y-84050771D01*
X129053696Y-84622200D02*
X129148934Y-84669819D01*
X129148934Y-84669819D02*
X129387029Y-84669819D01*
X129387029Y-84669819D02*
X129482267Y-84622200D01*
X129482267Y-84622200D02*
X129529886Y-84526961D01*
X129529886Y-84526961D02*
X129529886Y-84431723D01*
X129529886Y-84431723D02*
X129482267Y-84336485D01*
X129482267Y-84336485D02*
X129387029Y-84288866D01*
X129387029Y-84288866D02*
X129148934Y-84288866D01*
X129148934Y-84288866D02*
X129053696Y-84241247D01*
X128148934Y-84669819D02*
X128148934Y-83669819D01*
X128148934Y-84622200D02*
X128244172Y-84669819D01*
X128244172Y-84669819D02*
X128434648Y-84669819D01*
X128434648Y-84669819D02*
X128529886Y-84622200D01*
X128529886Y-84622200D02*
X128577505Y-84574580D01*
X128577505Y-84574580D02*
X128625124Y-84479342D01*
X128625124Y-84479342D02*
X128625124Y-84193628D01*
X128625124Y-84193628D02*
X128577505Y-84098390D01*
X128577505Y-84098390D02*
X128529886Y-84050771D01*
X128529886Y-84050771D02*
X128434648Y-84003152D01*
X128434648Y-84003152D02*
X128244172Y-84003152D01*
X128244172Y-84003152D02*
X128148934Y-84050771D01*
X127244172Y-84003152D02*
X127244172Y-84812676D01*
X127244172Y-84812676D02*
X127291791Y-84907914D01*
X127291791Y-84907914D02*
X127339410Y-84955533D01*
X127339410Y-84955533D02*
X127434648Y-85003152D01*
X127434648Y-85003152D02*
X127577505Y-85003152D01*
X127577505Y-85003152D02*
X127672743Y-84955533D01*
X127244172Y-84622200D02*
X127339410Y-84669819D01*
X127339410Y-84669819D02*
X127529886Y-84669819D01*
X127529886Y-84669819D02*
X127625124Y-84622200D01*
X127625124Y-84622200D02*
X127672743Y-84574580D01*
X127672743Y-84574580D02*
X127720362Y-84479342D01*
X127720362Y-84479342D02*
X127720362Y-84193628D01*
X127720362Y-84193628D02*
X127672743Y-84098390D01*
X127672743Y-84098390D02*
X127625124Y-84050771D01*
X127625124Y-84050771D02*
X127529886Y-84003152D01*
X127529886Y-84003152D02*
X127339410Y-84003152D01*
X127339410Y-84003152D02*
X127244172Y-84050771D01*
X126387029Y-84622200D02*
X126482267Y-84669819D01*
X126482267Y-84669819D02*
X126672743Y-84669819D01*
X126672743Y-84669819D02*
X126767981Y-84622200D01*
X126767981Y-84622200D02*
X126815600Y-84526961D01*
X126815600Y-84526961D02*
X126815600Y-84146009D01*
X126815600Y-84146009D02*
X126767981Y-84050771D01*
X126767981Y-84050771D02*
X126672743Y-84003152D01*
X126672743Y-84003152D02*
X126482267Y-84003152D01*
X126482267Y-84003152D02*
X126387029Y-84050771D01*
X126387029Y-84050771D02*
X126339410Y-84146009D01*
X126339410Y-84146009D02*
X126339410Y-84241247D01*
X126339410Y-84241247D02*
X126815600Y-84336485D01*
X125767981Y-84669819D02*
X125863219Y-84622200D01*
X125863219Y-84622200D02*
X125910838Y-84526961D01*
X125910838Y-84526961D02*
X125910838Y-83669819D01*
X125387028Y-84669819D02*
X125387028Y-84003152D01*
X125387028Y-83669819D02*
X125434647Y-83717438D01*
X125434647Y-83717438D02*
X125387028Y-83765057D01*
X125387028Y-83765057D02*
X125339409Y-83717438D01*
X125339409Y-83717438D02*
X125387028Y-83669819D01*
X125387028Y-83669819D02*
X125387028Y-83765057D01*
X125053695Y-84003152D02*
X124672743Y-84003152D01*
X124910838Y-84669819D02*
X124910838Y-83812676D01*
X124910838Y-83812676D02*
X124863219Y-83717438D01*
X124863219Y-83717438D02*
X124767981Y-83669819D01*
X124767981Y-83669819D02*
X124672743Y-83669819D01*
X123958457Y-84622200D02*
X124053695Y-84669819D01*
X124053695Y-84669819D02*
X124244171Y-84669819D01*
X124244171Y-84669819D02*
X124339409Y-84622200D01*
X124339409Y-84622200D02*
X124387028Y-84526961D01*
X124387028Y-84526961D02*
X124387028Y-84146009D01*
X124387028Y-84146009D02*
X124339409Y-84050771D01*
X124339409Y-84050771D02*
X124244171Y-84003152D01*
X124244171Y-84003152D02*
X124053695Y-84003152D01*
X124053695Y-84003152D02*
X123958457Y-84050771D01*
X123958457Y-84050771D02*
X123910838Y-84146009D01*
X123910838Y-84146009D02*
X123910838Y-84241247D01*
X123910838Y-84241247D02*
X124387028Y-84336485D01*
X122958457Y-84669819D02*
X123529885Y-84669819D01*
X123244171Y-84669819D02*
X123244171Y-83669819D01*
X123244171Y-83669819D02*
X123339409Y-83812676D01*
X123339409Y-83812676D02*
X123434647Y-83907914D01*
X123434647Y-83907914D02*
X123529885Y-83955533D01*
X122339409Y-83669819D02*
X122244171Y-83669819D01*
X122244171Y-83669819D02*
X122148933Y-83717438D01*
X122148933Y-83717438D02*
X122101314Y-83765057D01*
X122101314Y-83765057D02*
X122053695Y-83860295D01*
X122053695Y-83860295D02*
X122006076Y-84050771D01*
X122006076Y-84050771D02*
X122006076Y-84288866D01*
X122006076Y-84288866D02*
X122053695Y-84479342D01*
X122053695Y-84479342D02*
X122101314Y-84574580D01*
X122101314Y-84574580D02*
X122148933Y-84622200D01*
X122148933Y-84622200D02*
X122244171Y-84669819D01*
X122244171Y-84669819D02*
X122339409Y-84669819D01*
X122339409Y-84669819D02*
X122434647Y-84622200D01*
X122434647Y-84622200D02*
X122482266Y-84574580D01*
X122482266Y-84574580D02*
X122529885Y-84479342D01*
X122529885Y-84479342D02*
X122577504Y-84288866D01*
X122577504Y-84288866D02*
X122577504Y-84050771D01*
X122577504Y-84050771D02*
X122529885Y-83860295D01*
X122529885Y-83860295D02*
X122482266Y-83765057D01*
X122482266Y-83765057D02*
X122434647Y-83717438D01*
X122434647Y-83717438D02*
X122339409Y-83669819D01*
X121053695Y-84669819D02*
X121625123Y-84669819D01*
X121339409Y-84669819D02*
X121339409Y-83669819D01*
X121339409Y-83669819D02*
X121434647Y-83812676D01*
X121434647Y-83812676D02*
X121529885Y-83907914D01*
X121529885Y-83907914D02*
X121625123Y-83955533D01*
X140391666Y-78254819D02*
X140724999Y-77778628D01*
X140963094Y-78254819D02*
X140963094Y-77254819D01*
X140963094Y-77254819D02*
X140582142Y-77254819D01*
X140582142Y-77254819D02*
X140486904Y-77302438D01*
X140486904Y-77302438D02*
X140439285Y-77350057D01*
X140439285Y-77350057D02*
X140391666Y-77445295D01*
X140391666Y-77445295D02*
X140391666Y-77588152D01*
X140391666Y-77588152D02*
X140439285Y-77683390D01*
X140439285Y-77683390D02*
X140486904Y-77731009D01*
X140486904Y-77731009D02*
X140582142Y-77778628D01*
X140582142Y-77778628D02*
X140963094Y-77778628D01*
X139534523Y-77254819D02*
X139724999Y-77254819D01*
X139724999Y-77254819D02*
X139820237Y-77302438D01*
X139820237Y-77302438D02*
X139867856Y-77350057D01*
X139867856Y-77350057D02*
X139963094Y-77492914D01*
X139963094Y-77492914D02*
X140010713Y-77683390D01*
X140010713Y-77683390D02*
X140010713Y-78064342D01*
X140010713Y-78064342D02*
X139963094Y-78159580D01*
X139963094Y-78159580D02*
X139915475Y-78207200D01*
X139915475Y-78207200D02*
X139820237Y-78254819D01*
X139820237Y-78254819D02*
X139629761Y-78254819D01*
X139629761Y-78254819D02*
X139534523Y-78207200D01*
X139534523Y-78207200D02*
X139486904Y-78159580D01*
X139486904Y-78159580D02*
X139439285Y-78064342D01*
X139439285Y-78064342D02*
X139439285Y-77826247D01*
X139439285Y-77826247D02*
X139486904Y-77731009D01*
X139486904Y-77731009D02*
X139534523Y-77683390D01*
X139534523Y-77683390D02*
X139629761Y-77635771D01*
X139629761Y-77635771D02*
X139820237Y-77635771D01*
X139820237Y-77635771D02*
X139915475Y-77683390D01*
X139915475Y-77683390D02*
X139963094Y-77731009D01*
X139963094Y-77731009D02*
X140010713Y-77826247D01*
X116084819Y-89458333D02*
X115608628Y-89125000D01*
X116084819Y-88886905D02*
X115084819Y-88886905D01*
X115084819Y-88886905D02*
X115084819Y-89267857D01*
X115084819Y-89267857D02*
X115132438Y-89363095D01*
X115132438Y-89363095D02*
X115180057Y-89410714D01*
X115180057Y-89410714D02*
X115275295Y-89458333D01*
X115275295Y-89458333D02*
X115418152Y-89458333D01*
X115418152Y-89458333D02*
X115513390Y-89410714D01*
X115513390Y-89410714D02*
X115561009Y-89363095D01*
X115561009Y-89363095D02*
X115608628Y-89267857D01*
X115608628Y-89267857D02*
X115608628Y-88886905D01*
X115084819Y-90363095D02*
X115084819Y-89886905D01*
X115084819Y-89886905D02*
X115561009Y-89839286D01*
X115561009Y-89839286D02*
X115513390Y-89886905D01*
X115513390Y-89886905D02*
X115465771Y-89982143D01*
X115465771Y-89982143D02*
X115465771Y-90220238D01*
X115465771Y-90220238D02*
X115513390Y-90315476D01*
X115513390Y-90315476D02*
X115561009Y-90363095D01*
X115561009Y-90363095D02*
X115656247Y-90410714D01*
X115656247Y-90410714D02*
X115894342Y-90410714D01*
X115894342Y-90410714D02*
X115989580Y-90363095D01*
X115989580Y-90363095D02*
X116037200Y-90315476D01*
X116037200Y-90315476D02*
X116084819Y-90220238D01*
X116084819Y-90220238D02*
X116084819Y-89982143D01*
X116084819Y-89982143D02*
X116037200Y-89886905D01*
X116037200Y-89886905D02*
X115989580Y-89839286D01*
X136566666Y-109454819D02*
X136899999Y-108978628D01*
X137138094Y-109454819D02*
X137138094Y-108454819D01*
X137138094Y-108454819D02*
X136757142Y-108454819D01*
X136757142Y-108454819D02*
X136661904Y-108502438D01*
X136661904Y-108502438D02*
X136614285Y-108550057D01*
X136614285Y-108550057D02*
X136566666Y-108645295D01*
X136566666Y-108645295D02*
X136566666Y-108788152D01*
X136566666Y-108788152D02*
X136614285Y-108883390D01*
X136614285Y-108883390D02*
X136661904Y-108931009D01*
X136661904Y-108931009D02*
X136757142Y-108978628D01*
X136757142Y-108978628D02*
X137138094Y-108978628D01*
X135709523Y-108788152D02*
X135709523Y-109454819D01*
X135947618Y-108407200D02*
X136185713Y-109121485D01*
X136185713Y-109121485D02*
X135566666Y-109121485D01*
X128816666Y-109504819D02*
X129149999Y-109028628D01*
X129388094Y-109504819D02*
X129388094Y-108504819D01*
X129388094Y-108504819D02*
X129007142Y-108504819D01*
X129007142Y-108504819D02*
X128911904Y-108552438D01*
X128911904Y-108552438D02*
X128864285Y-108600057D01*
X128864285Y-108600057D02*
X128816666Y-108695295D01*
X128816666Y-108695295D02*
X128816666Y-108838152D01*
X128816666Y-108838152D02*
X128864285Y-108933390D01*
X128864285Y-108933390D02*
X128911904Y-108981009D01*
X128911904Y-108981009D02*
X129007142Y-109028628D01*
X129007142Y-109028628D02*
X129388094Y-109028628D01*
X128483332Y-108504819D02*
X127864285Y-108504819D01*
X127864285Y-108504819D02*
X128197618Y-108885771D01*
X128197618Y-108885771D02*
X128054761Y-108885771D01*
X128054761Y-108885771D02*
X127959523Y-108933390D01*
X127959523Y-108933390D02*
X127911904Y-108981009D01*
X127911904Y-108981009D02*
X127864285Y-109076247D01*
X127864285Y-109076247D02*
X127864285Y-109314342D01*
X127864285Y-109314342D02*
X127911904Y-109409580D01*
X127911904Y-109409580D02*
X127959523Y-109457200D01*
X127959523Y-109457200D02*
X128054761Y-109504819D01*
X128054761Y-109504819D02*
X128340475Y-109504819D01*
X128340475Y-109504819D02*
X128435713Y-109457200D01*
X128435713Y-109457200D02*
X128483332Y-109409580D01*
X140341666Y-76654819D02*
X140674999Y-76178628D01*
X140913094Y-76654819D02*
X140913094Y-75654819D01*
X140913094Y-75654819D02*
X140532142Y-75654819D01*
X140532142Y-75654819D02*
X140436904Y-75702438D01*
X140436904Y-75702438D02*
X140389285Y-75750057D01*
X140389285Y-75750057D02*
X140341666Y-75845295D01*
X140341666Y-75845295D02*
X140341666Y-75988152D01*
X140341666Y-75988152D02*
X140389285Y-76083390D01*
X140389285Y-76083390D02*
X140436904Y-76131009D01*
X140436904Y-76131009D02*
X140532142Y-76178628D01*
X140532142Y-76178628D02*
X140913094Y-76178628D01*
X139960713Y-75750057D02*
X139913094Y-75702438D01*
X139913094Y-75702438D02*
X139817856Y-75654819D01*
X139817856Y-75654819D02*
X139579761Y-75654819D01*
X139579761Y-75654819D02*
X139484523Y-75702438D01*
X139484523Y-75702438D02*
X139436904Y-75750057D01*
X139436904Y-75750057D02*
X139389285Y-75845295D01*
X139389285Y-75845295D02*
X139389285Y-75940533D01*
X139389285Y-75940533D02*
X139436904Y-76083390D01*
X139436904Y-76083390D02*
X140008332Y-76654819D01*
X140008332Y-76654819D02*
X139389285Y-76654819D01*
X127141666Y-75154819D02*
X127474999Y-74678628D01*
X127713094Y-75154819D02*
X127713094Y-74154819D01*
X127713094Y-74154819D02*
X127332142Y-74154819D01*
X127332142Y-74154819D02*
X127236904Y-74202438D01*
X127236904Y-74202438D02*
X127189285Y-74250057D01*
X127189285Y-74250057D02*
X127141666Y-74345295D01*
X127141666Y-74345295D02*
X127141666Y-74488152D01*
X127141666Y-74488152D02*
X127189285Y-74583390D01*
X127189285Y-74583390D02*
X127236904Y-74631009D01*
X127236904Y-74631009D02*
X127332142Y-74678628D01*
X127332142Y-74678628D02*
X127713094Y-74678628D01*
X126189285Y-75154819D02*
X126760713Y-75154819D01*
X126474999Y-75154819D02*
X126474999Y-74154819D01*
X126474999Y-74154819D02*
X126570237Y-74297676D01*
X126570237Y-74297676D02*
X126665475Y-74392914D01*
X126665475Y-74392914D02*
X126760713Y-74440533D01*
X121181009Y-96214285D02*
X121228628Y-96357142D01*
X121228628Y-96357142D02*
X121276247Y-96404761D01*
X121276247Y-96404761D02*
X121371485Y-96452380D01*
X121371485Y-96452380D02*
X121514342Y-96452380D01*
X121514342Y-96452380D02*
X121609580Y-96404761D01*
X121609580Y-96404761D02*
X121657200Y-96357142D01*
X121657200Y-96357142D02*
X121704819Y-96261904D01*
X121704819Y-96261904D02*
X121704819Y-95880952D01*
X121704819Y-95880952D02*
X120704819Y-95880952D01*
X120704819Y-95880952D02*
X120704819Y-96214285D01*
X120704819Y-96214285D02*
X120752438Y-96309523D01*
X120752438Y-96309523D02*
X120800057Y-96357142D01*
X120800057Y-96357142D02*
X120895295Y-96404761D01*
X120895295Y-96404761D02*
X120990533Y-96404761D01*
X120990533Y-96404761D02*
X121085771Y-96357142D01*
X121085771Y-96357142D02*
X121133390Y-96309523D01*
X121133390Y-96309523D02*
X121181009Y-96214285D01*
X121181009Y-96214285D02*
X121181009Y-95880952D01*
X120704819Y-96738095D02*
X120704819Y-97309523D01*
X121704819Y-97023809D02*
X120704819Y-97023809D01*
X121704819Y-98166666D02*
X121704819Y-97595238D01*
X121704819Y-97880952D02*
X120704819Y-97880952D01*
X120704819Y-97880952D02*
X120847676Y-97785714D01*
X120847676Y-97785714D02*
X120942914Y-97690476D01*
X120942914Y-97690476D02*
X120990533Y-97595238D01*
%TO.C,REF\u002A\u002A*%
D11*
X145253941Y-91149282D02*
X145285774Y-91161758D01*
X145322743Y-91178602D01*
X145322743Y-91665196D01*
X145276812Y-91711127D01*
X145266320Y-91721427D01*
X145237255Y-91744320D01*
X145207943Y-91751735D01*
X145164326Y-91748321D01*
X145146568Y-91746114D01*
X145100767Y-91741445D01*
X145068743Y-91739585D01*
X145059244Y-91739869D01*
X145020274Y-91742948D01*
X144973160Y-91748321D01*
X144958085Y-91750168D01*
X144920110Y-91750893D01*
X144892325Y-91739429D01*
X144860674Y-91711127D01*
X144814743Y-91665196D01*
X144814743Y-91405055D01*
X144815101Y-91328180D01*
X144816216Y-91254886D01*
X144817952Y-91196850D01*
X144820167Y-91158663D01*
X144822721Y-91144914D01*
X144823256Y-91144951D01*
X144841808Y-91151793D01*
X144873153Y-91166868D01*
X144915608Y-91188822D01*
X144919604Y-91417240D01*
X144923600Y-91645657D01*
X145010686Y-91645657D01*
X145014657Y-91395286D01*
X145015916Y-91327227D01*
X145017718Y-91254482D01*
X145019671Y-91196730D01*
X145021612Y-91158648D01*
X145023377Y-91144914D01*
X145023885Y-91144962D01*
X145041482Y-91150015D01*
X145073834Y-91160849D01*
X145119543Y-91176783D01*
X145119765Y-91396706D01*
X145119988Y-91434909D01*
X145121531Y-91509146D01*
X145124292Y-91571145D01*
X145127977Y-91615308D01*
X145132292Y-91636041D01*
X145147732Y-91647131D01*
X145179241Y-91650556D01*
X145213886Y-91645657D01*
X145217857Y-91395286D01*
X145219278Y-91331663D01*
X145222225Y-91256356D01*
X145226079Y-91197286D01*
X145230542Y-91158718D01*
X145235317Y-91144914D01*
X145253941Y-91149282D01*
G36*
X145253941Y-91149282D02*
G01*
X145285774Y-91161758D01*
X145322743Y-91178602D01*
X145322743Y-91665196D01*
X145276812Y-91711127D01*
X145266320Y-91721427D01*
X145237255Y-91744320D01*
X145207943Y-91751735D01*
X145164326Y-91748321D01*
X145146568Y-91746114D01*
X145100767Y-91741445D01*
X145068743Y-91739585D01*
X145059244Y-91739869D01*
X145020274Y-91742948D01*
X144973160Y-91748321D01*
X144958085Y-91750168D01*
X144920110Y-91750893D01*
X144892325Y-91739429D01*
X144860674Y-91711127D01*
X144814743Y-91665196D01*
X144814743Y-91405055D01*
X144815101Y-91328180D01*
X144816216Y-91254886D01*
X144817952Y-91196850D01*
X144820167Y-91158663D01*
X144822721Y-91144914D01*
X144823256Y-91144951D01*
X144841808Y-91151793D01*
X144873153Y-91166868D01*
X144915608Y-91188822D01*
X144919604Y-91417240D01*
X144923600Y-91645657D01*
X145010686Y-91645657D01*
X145014657Y-91395286D01*
X145015916Y-91327227D01*
X145017718Y-91254482D01*
X145019671Y-91196730D01*
X145021612Y-91158648D01*
X145023377Y-91144914D01*
X145023885Y-91144962D01*
X145041482Y-91150015D01*
X145073834Y-91160849D01*
X145119543Y-91176783D01*
X145119765Y-91396706D01*
X145119988Y-91434909D01*
X145121531Y-91509146D01*
X145124292Y-91571145D01*
X145127977Y-91615308D01*
X145132292Y-91636041D01*
X145147732Y-91647131D01*
X145179241Y-91650556D01*
X145213886Y-91645657D01*
X145217857Y-91395286D01*
X145219278Y-91331663D01*
X145222225Y-91256356D01*
X145226079Y-91197286D01*
X145230542Y-91158718D01*
X145235317Y-91144914D01*
X145253941Y-91149282D01*
G37*
X149865714Y-91435200D02*
X149865701Y-91450935D01*
X149864914Y-91521119D01*
X149862210Y-91570022D01*
X149856606Y-91604178D01*
X149847119Y-91630124D01*
X149832768Y-91654397D01*
X149829237Y-91659433D01*
X149791878Y-91699143D01*
X149749311Y-91729092D01*
X149727452Y-91738810D01*
X149648908Y-91755020D01*
X149571231Y-91744535D01*
X149499645Y-91708707D01*
X149439374Y-91648887D01*
X149434286Y-91640873D01*
X149417730Y-91594342D01*
X149406573Y-91529552D01*
X149401160Y-91454727D01*
X149401768Y-91385513D01*
X149548248Y-91385513D01*
X149549402Y-91481399D01*
X149549866Y-91487569D01*
X149556629Y-91540478D01*
X149568671Y-91574029D01*
X149589005Y-91597016D01*
X149623097Y-91618548D01*
X149656814Y-91619680D01*
X149691543Y-91594857D01*
X149697584Y-91588325D01*
X149709417Y-91568779D01*
X149716404Y-91540386D01*
X149719727Y-91496430D01*
X149720571Y-91430192D01*
X149719125Y-91368150D01*
X149711907Y-91309042D01*
X149697006Y-91271686D01*
X149672636Y-91252152D01*
X149637008Y-91246514D01*
X149623440Y-91247635D01*
X149585430Y-91268194D01*
X149560312Y-91314299D01*
X149548248Y-91385513D01*
X149401768Y-91385513D01*
X149401833Y-91378096D01*
X149408937Y-91307882D01*
X149422815Y-91252312D01*
X149440649Y-91215301D01*
X149490855Y-91157733D01*
X149558885Y-91121962D01*
X149642158Y-91109665D01*
X149664398Y-91110331D01*
X149729891Y-91123947D01*
X149783687Y-91158249D01*
X149833057Y-91217338D01*
X149835995Y-91221722D01*
X149849287Y-91245299D01*
X149857932Y-91271949D01*
X149862904Y-91308159D01*
X149865174Y-91360413D01*
X149865678Y-91430192D01*
X149865714Y-91435200D01*
G36*
X149865714Y-91435200D02*
G01*
X149865701Y-91450935D01*
X149864914Y-91521119D01*
X149862210Y-91570022D01*
X149856606Y-91604178D01*
X149847119Y-91630124D01*
X149832768Y-91654397D01*
X149829237Y-91659433D01*
X149791878Y-91699143D01*
X149749311Y-91729092D01*
X149727452Y-91738810D01*
X149648908Y-91755020D01*
X149571231Y-91744535D01*
X149499645Y-91708707D01*
X149439374Y-91648887D01*
X149434286Y-91640873D01*
X149417730Y-91594342D01*
X149406573Y-91529552D01*
X149401160Y-91454727D01*
X149401768Y-91385513D01*
X149548248Y-91385513D01*
X149549402Y-91481399D01*
X149549866Y-91487569D01*
X149556629Y-91540478D01*
X149568671Y-91574029D01*
X149589005Y-91597016D01*
X149623097Y-91618548D01*
X149656814Y-91619680D01*
X149691543Y-91594857D01*
X149697584Y-91588325D01*
X149709417Y-91568779D01*
X149716404Y-91540386D01*
X149719727Y-91496430D01*
X149720571Y-91430192D01*
X149719125Y-91368150D01*
X149711907Y-91309042D01*
X149697006Y-91271686D01*
X149672636Y-91252152D01*
X149637008Y-91246514D01*
X149623440Y-91247635D01*
X149585430Y-91268194D01*
X149560312Y-91314299D01*
X149548248Y-91385513D01*
X149401768Y-91385513D01*
X149401833Y-91378096D01*
X149408937Y-91307882D01*
X149422815Y-91252312D01*
X149440649Y-91215301D01*
X149490855Y-91157733D01*
X149558885Y-91121962D01*
X149642158Y-91109665D01*
X149664398Y-91110331D01*
X149729891Y-91123947D01*
X149783687Y-91158249D01*
X149833057Y-91217338D01*
X149835995Y-91221722D01*
X149849287Y-91245299D01*
X149857932Y-91271949D01*
X149862904Y-91308159D01*
X149865174Y-91360413D01*
X149865678Y-91430192D01*
X149865714Y-91435200D01*
G37*
X143740590Y-91452622D02*
X143740307Y-91491305D01*
X143736762Y-91567521D01*
X143727483Y-91623294D01*
X143710375Y-91664613D01*
X143683344Y-91697467D01*
X143644292Y-91727846D01*
X143619445Y-91741660D01*
X143579615Y-91750965D01*
X143523665Y-91750230D01*
X143492385Y-91747283D01*
X143454653Y-91738283D01*
X143424494Y-91718720D01*
X143389408Y-91682267D01*
X143384720Y-91676943D01*
X143353177Y-91635969D01*
X143338128Y-91600283D01*
X143334286Y-91557966D01*
X143334286Y-91495779D01*
X143377742Y-91512182D01*
X143409424Y-91531356D01*
X143436962Y-91576347D01*
X143442711Y-91590752D01*
X143474855Y-91631546D01*
X143518611Y-91652081D01*
X143566254Y-91650235D01*
X143610057Y-91623886D01*
X143625111Y-91607455D01*
X143638763Y-91582667D01*
X143634493Y-91560144D01*
X143609916Y-91536964D01*
X143562651Y-91510202D01*
X143490314Y-91476934D01*
X143341543Y-91411816D01*
X143337595Y-91347308D01*
X143339079Y-91306220D01*
X143436010Y-91306220D01*
X143443368Y-91331657D01*
X143476848Y-91358814D01*
X143537614Y-91389714D01*
X143547669Y-91394190D01*
X143595751Y-91415017D01*
X143631726Y-91429665D01*
X143648444Y-91435200D01*
X143650977Y-91431126D01*
X143651993Y-91406247D01*
X143648369Y-91366257D01*
X143639242Y-91327152D01*
X143610773Y-91277884D01*
X143569678Y-91250122D01*
X143520590Y-91246364D01*
X143468144Y-91269109D01*
X143453609Y-91280481D01*
X143436010Y-91306220D01*
X143339079Y-91306220D01*
X143339338Y-91299064D01*
X143361281Y-91238096D01*
X143388979Y-91204497D01*
X143446405Y-91166966D01*
X143514527Y-91148006D01*
X143584947Y-91149507D01*
X143649267Y-91173355D01*
X143663426Y-91182513D01*
X143695904Y-91210849D01*
X143718116Y-91246695D01*
X143731804Y-91295384D01*
X143738715Y-91362249D01*
X143739628Y-91406247D01*
X143740590Y-91452622D01*
G36*
X143740590Y-91452622D02*
G01*
X143740307Y-91491305D01*
X143736762Y-91567521D01*
X143727483Y-91623294D01*
X143710375Y-91664613D01*
X143683344Y-91697467D01*
X143644292Y-91727846D01*
X143619445Y-91741660D01*
X143579615Y-91750965D01*
X143523665Y-91750230D01*
X143492385Y-91747283D01*
X143454653Y-91738283D01*
X143424494Y-91718720D01*
X143389408Y-91682267D01*
X143384720Y-91676943D01*
X143353177Y-91635969D01*
X143338128Y-91600283D01*
X143334286Y-91557966D01*
X143334286Y-91495779D01*
X143377742Y-91512182D01*
X143409424Y-91531356D01*
X143436962Y-91576347D01*
X143442711Y-91590752D01*
X143474855Y-91631546D01*
X143518611Y-91652081D01*
X143566254Y-91650235D01*
X143610057Y-91623886D01*
X143625111Y-91607455D01*
X143638763Y-91582667D01*
X143634493Y-91560144D01*
X143609916Y-91536964D01*
X143562651Y-91510202D01*
X143490314Y-91476934D01*
X143341543Y-91411816D01*
X143337595Y-91347308D01*
X143339079Y-91306220D01*
X143436010Y-91306220D01*
X143443368Y-91331657D01*
X143476848Y-91358814D01*
X143537614Y-91389714D01*
X143547669Y-91394190D01*
X143595751Y-91415017D01*
X143631726Y-91429665D01*
X143648444Y-91435200D01*
X143650977Y-91431126D01*
X143651993Y-91406247D01*
X143648369Y-91366257D01*
X143639242Y-91327152D01*
X143610773Y-91277884D01*
X143569678Y-91250122D01*
X143520590Y-91246364D01*
X143468144Y-91269109D01*
X143453609Y-91280481D01*
X143436010Y-91306220D01*
X143339079Y-91306220D01*
X143339338Y-91299064D01*
X143361281Y-91238096D01*
X143388979Y-91204497D01*
X143446405Y-91166966D01*
X143514527Y-91148006D01*
X143584947Y-91149507D01*
X143649267Y-91173355D01*
X143663426Y-91182513D01*
X143695904Y-91210849D01*
X143718116Y-91246695D01*
X143731804Y-91295384D01*
X143738715Y-91362249D01*
X143739628Y-91406247D01*
X143740590Y-91452622D01*
G37*
X148031020Y-91117822D02*
X148098810Y-91149680D01*
X148154366Y-91204770D01*
X148165881Y-91222016D01*
X148175432Y-91241562D01*
X148182206Y-91266198D01*
X148186819Y-91300711D01*
X148189888Y-91349889D01*
X148192029Y-91418519D01*
X148193859Y-91511389D01*
X148198404Y-91769007D01*
X148160225Y-91754491D01*
X148125268Y-91741156D01*
X148099097Y-91728323D01*
X148082013Y-91711780D01*
X148072086Y-91686465D01*
X148067386Y-91647316D01*
X148065982Y-91589268D01*
X148065943Y-91507261D01*
X148065744Y-91441895D01*
X148064559Y-91379173D01*
X148061729Y-91336334D01*
X148056609Y-91308220D01*
X148048553Y-91289675D01*
X148036914Y-91275543D01*
X148008303Y-91255600D01*
X147960239Y-91248083D01*
X147912688Y-91267079D01*
X147909550Y-91269511D01*
X147899769Y-91280748D01*
X147892553Y-91298770D01*
X147887299Y-91328026D01*
X147883402Y-91372962D01*
X147880256Y-91438028D01*
X147877257Y-91527670D01*
X147870000Y-91767697D01*
X147808314Y-91740044D01*
X147746629Y-91712391D01*
X147746629Y-91493246D01*
X147746884Y-91433711D01*
X147749086Y-91350892D01*
X147754661Y-91289227D01*
X147764941Y-91243748D01*
X147781258Y-91209484D01*
X147804943Y-91181466D01*
X147837328Y-91154723D01*
X147883907Y-91127780D01*
X147957287Y-91110191D01*
X148031020Y-91117822D01*
G36*
X148031020Y-91117822D02*
G01*
X148098810Y-91149680D01*
X148154366Y-91204770D01*
X148165881Y-91222016D01*
X148175432Y-91241562D01*
X148182206Y-91266198D01*
X148186819Y-91300711D01*
X148189888Y-91349889D01*
X148192029Y-91418519D01*
X148193859Y-91511389D01*
X148198404Y-91769007D01*
X148160225Y-91754491D01*
X148125268Y-91741156D01*
X148099097Y-91728323D01*
X148082013Y-91711780D01*
X148072086Y-91686465D01*
X148067386Y-91647316D01*
X148065982Y-91589268D01*
X148065943Y-91507261D01*
X148065744Y-91441895D01*
X148064559Y-91379173D01*
X148061729Y-91336334D01*
X148056609Y-91308220D01*
X148048553Y-91289675D01*
X148036914Y-91275543D01*
X148008303Y-91255600D01*
X147960239Y-91248083D01*
X147912688Y-91267079D01*
X147909550Y-91269511D01*
X147899769Y-91280748D01*
X147892553Y-91298770D01*
X147887299Y-91328026D01*
X147883402Y-91372962D01*
X147880256Y-91438028D01*
X147877257Y-91527670D01*
X147870000Y-91767697D01*
X147808314Y-91740044D01*
X147746629Y-91712391D01*
X147746629Y-91493246D01*
X147746884Y-91433711D01*
X147749086Y-91350892D01*
X147754661Y-91289227D01*
X147764941Y-91243748D01*
X147781258Y-91209484D01*
X147804943Y-91181466D01*
X147837328Y-91154723D01*
X147883907Y-91127780D01*
X147957287Y-91110191D01*
X148031020Y-91117822D01*
G37*
X144082829Y-91151097D02*
X144142753Y-91173355D01*
X144167673Y-91190080D01*
X144192910Y-91214043D01*
X144210912Y-91244526D01*
X144222858Y-91286023D01*
X144229930Y-91343032D01*
X144233308Y-91420047D01*
X144234171Y-91521565D01*
X144234002Y-91574027D01*
X144233153Y-91645715D01*
X144231711Y-91702925D01*
X144229814Y-91740809D01*
X144227597Y-91754514D01*
X144213172Y-91749981D01*
X144184054Y-91737670D01*
X144183181Y-91737272D01*
X144168060Y-91729356D01*
X144157891Y-91718495D01*
X144151691Y-91699471D01*
X144148478Y-91667069D01*
X144147270Y-91616071D01*
X144147086Y-91541261D01*
X144146714Y-91493804D01*
X144142750Y-91404615D01*
X144133673Y-91339287D01*
X144118524Y-91294393D01*
X144096345Y-91266507D01*
X144066175Y-91252203D01*
X144061990Y-91251206D01*
X144005480Y-91250427D01*
X143961410Y-91275744D01*
X143930972Y-91326502D01*
X143925544Y-91341175D01*
X143913171Y-91373649D01*
X143906905Y-91388572D01*
X143894036Y-91386516D01*
X143865933Y-91375357D01*
X143839721Y-91356927D01*
X143827771Y-91322098D01*
X143831336Y-91297151D01*
X143853235Y-91246547D01*
X143888644Y-91199128D01*
X143930052Y-91166334D01*
X143947400Y-91158752D01*
X144013089Y-91146076D01*
X144082829Y-91151097D01*
G36*
X144082829Y-91151097D02*
G01*
X144142753Y-91173355D01*
X144167673Y-91190080D01*
X144192910Y-91214043D01*
X144210912Y-91244526D01*
X144222858Y-91286023D01*
X144229930Y-91343032D01*
X144233308Y-91420047D01*
X144234171Y-91521565D01*
X144234002Y-91574027D01*
X144233153Y-91645715D01*
X144231711Y-91702925D01*
X144229814Y-91740809D01*
X144227597Y-91754514D01*
X144213172Y-91749981D01*
X144184054Y-91737670D01*
X144183181Y-91737272D01*
X144168060Y-91729356D01*
X144157891Y-91718495D01*
X144151691Y-91699471D01*
X144148478Y-91667069D01*
X144147270Y-91616071D01*
X144147086Y-91541261D01*
X144146714Y-91493804D01*
X144142750Y-91404615D01*
X144133673Y-91339287D01*
X144118524Y-91294393D01*
X144096345Y-91266507D01*
X144066175Y-91252203D01*
X144061990Y-91251206D01*
X144005480Y-91250427D01*
X143961410Y-91275744D01*
X143930972Y-91326502D01*
X143925544Y-91341175D01*
X143913171Y-91373649D01*
X143906905Y-91388572D01*
X143894036Y-91386516D01*
X143865933Y-91375357D01*
X143839721Y-91356927D01*
X143827771Y-91322098D01*
X143831336Y-91297151D01*
X143853235Y-91246547D01*
X143888644Y-91199128D01*
X143930052Y-91166334D01*
X143947400Y-91158752D01*
X144013089Y-91146076D01*
X144082829Y-91151097D01*
G37*
X145830698Y-91449714D02*
X145829537Y-91506313D01*
X145821345Y-91583462D01*
X145803519Y-91641276D01*
X145773975Y-91685422D01*
X145730625Y-91721568D01*
X145689332Y-91742463D01*
X145619987Y-91754090D01*
X145550736Y-91741377D01*
X145488145Y-91705945D01*
X145438779Y-91649418D01*
X145432818Y-91638995D01*
X145424945Y-91620733D01*
X145419106Y-91597429D01*
X145414999Y-91565085D01*
X145412325Y-91519704D01*
X145410781Y-91457287D01*
X145410734Y-91451748D01*
X145511429Y-91451748D01*
X145511772Y-91504577D01*
X145513942Y-91552362D01*
X145519307Y-91583209D01*
X145529217Y-91603935D01*
X145545021Y-91621356D01*
X145548724Y-91624705D01*
X145596299Y-91649419D01*
X145646635Y-91646890D01*
X145693517Y-91617288D01*
X145707477Y-91601953D01*
X145719160Y-91581622D01*
X145725686Y-91553514D01*
X145728524Y-91510550D01*
X145729143Y-91445647D01*
X145728837Y-91396122D01*
X145726722Y-91347782D01*
X145721390Y-91316587D01*
X145711460Y-91295647D01*
X145695550Y-91278073D01*
X145686204Y-91270159D01*
X145637776Y-91248843D01*
X145587040Y-91252198D01*
X145542987Y-91280107D01*
X145533504Y-91291173D01*
X145521939Y-91312009D01*
X145515252Y-91341106D01*
X145512173Y-91385381D01*
X145511429Y-91451748D01*
X145410734Y-91451748D01*
X145410067Y-91373837D01*
X145409883Y-91265358D01*
X145409829Y-90928601D01*
X145457000Y-90948362D01*
X145469472Y-90953770D01*
X145489324Y-90965985D01*
X145500687Y-90984482D01*
X145506933Y-91016829D01*
X145511429Y-91070593D01*
X145515535Y-91118866D01*
X145520963Y-91150557D01*
X145528739Y-91162383D01*
X145540457Y-91159212D01*
X145570318Y-91148067D01*
X145623684Y-91145304D01*
X145681093Y-91155625D01*
X145730625Y-91177861D01*
X145757876Y-91198443D01*
X145792865Y-91238600D01*
X145815274Y-91290086D01*
X145827190Y-91358568D01*
X145830542Y-91445647D01*
X145830698Y-91449714D01*
G36*
X145830698Y-91449714D02*
G01*
X145829537Y-91506313D01*
X145821345Y-91583462D01*
X145803519Y-91641276D01*
X145773975Y-91685422D01*
X145730625Y-91721568D01*
X145689332Y-91742463D01*
X145619987Y-91754090D01*
X145550736Y-91741377D01*
X145488145Y-91705945D01*
X145438779Y-91649418D01*
X145432818Y-91638995D01*
X145424945Y-91620733D01*
X145419106Y-91597429D01*
X145414999Y-91565085D01*
X145412325Y-91519704D01*
X145410781Y-91457287D01*
X145410734Y-91451748D01*
X145511429Y-91451748D01*
X145511772Y-91504577D01*
X145513942Y-91552362D01*
X145519307Y-91583209D01*
X145529217Y-91603935D01*
X145545021Y-91621356D01*
X145548724Y-91624705D01*
X145596299Y-91649419D01*
X145646635Y-91646890D01*
X145693517Y-91617288D01*
X145707477Y-91601953D01*
X145719160Y-91581622D01*
X145725686Y-91553514D01*
X145728524Y-91510550D01*
X145729143Y-91445647D01*
X145728837Y-91396122D01*
X145726722Y-91347782D01*
X145721390Y-91316587D01*
X145711460Y-91295647D01*
X145695550Y-91278073D01*
X145686204Y-91270159D01*
X145637776Y-91248843D01*
X145587040Y-91252198D01*
X145542987Y-91280107D01*
X145533504Y-91291173D01*
X145521939Y-91312009D01*
X145515252Y-91341106D01*
X145512173Y-91385381D01*
X145511429Y-91451748D01*
X145410734Y-91451748D01*
X145410067Y-91373837D01*
X145409883Y-91265358D01*
X145409829Y-90928601D01*
X145457000Y-90948362D01*
X145469472Y-90953770D01*
X145489324Y-90965985D01*
X145500687Y-90984482D01*
X145506933Y-91016829D01*
X145511429Y-91070593D01*
X145515535Y-91118866D01*
X145520963Y-91150557D01*
X145528739Y-91162383D01*
X145540457Y-91159212D01*
X145570318Y-91148067D01*
X145623684Y-91145304D01*
X145681093Y-91155625D01*
X145730625Y-91177861D01*
X145757876Y-91198443D01*
X145792865Y-91238600D01*
X145815274Y-91290086D01*
X145827190Y-91358568D01*
X145830542Y-91445647D01*
X145830698Y-91449714D01*
G37*
X147278543Y-90949444D02*
X147325714Y-90969342D01*
X147325714Y-91366509D01*
X147325519Y-91469498D01*
X147324998Y-91562141D01*
X147324199Y-91640700D01*
X147323172Y-91701439D01*
X147321963Y-91740623D01*
X147320623Y-91754514D01*
X147320099Y-91754468D01*
X147302287Y-91749420D01*
X147269823Y-91738580D01*
X147224114Y-91722646D01*
X147224114Y-91518173D01*
X147223824Y-91437832D01*
X147222474Y-91379562D01*
X147219369Y-91339909D01*
X147213812Y-91313618D01*
X147205107Y-91295436D01*
X147192556Y-91280107D01*
X147183999Y-91271955D01*
X147137728Y-91249375D01*
X147086728Y-91251375D01*
X147039993Y-91278073D01*
X147033189Y-91284698D01*
X147022293Y-91298456D01*
X147014836Y-91316642D01*
X147010169Y-91344177D01*
X147007642Y-91385981D01*
X147006602Y-91446973D01*
X147006400Y-91532073D01*
X147006303Y-91575234D01*
X147005674Y-91646224D01*
X147004556Y-91703076D01*
X147003063Y-91740828D01*
X147001309Y-91754514D01*
X147000785Y-91754468D01*
X146982973Y-91749420D01*
X146950509Y-91738580D01*
X146904800Y-91722646D01*
X146904823Y-91517237D01*
X146904857Y-91498951D01*
X146906778Y-91403626D01*
X146912678Y-91331543D01*
X146924001Y-91277813D01*
X146942187Y-91237549D01*
X146968679Y-91205861D01*
X147004918Y-91177861D01*
X147040263Y-91160333D01*
X147096773Y-91146785D01*
X147152356Y-91146015D01*
X147195086Y-91159195D01*
X147198298Y-91161015D01*
X147208205Y-91160820D01*
X147214975Y-91145572D01*
X147219861Y-91110613D01*
X147224114Y-91051289D01*
X147231371Y-90929547D01*
X147278543Y-90949444D01*
G36*
X147278543Y-90949444D02*
G01*
X147325714Y-90969342D01*
X147325714Y-91366509D01*
X147325519Y-91469498D01*
X147324998Y-91562141D01*
X147324199Y-91640700D01*
X147323172Y-91701439D01*
X147321963Y-91740623D01*
X147320623Y-91754514D01*
X147320099Y-91754468D01*
X147302287Y-91749420D01*
X147269823Y-91738580D01*
X147224114Y-91722646D01*
X147224114Y-91518173D01*
X147223824Y-91437832D01*
X147222474Y-91379562D01*
X147219369Y-91339909D01*
X147213812Y-91313618D01*
X147205107Y-91295436D01*
X147192556Y-91280107D01*
X147183999Y-91271955D01*
X147137728Y-91249375D01*
X147086728Y-91251375D01*
X147039993Y-91278073D01*
X147033189Y-91284698D01*
X147022293Y-91298456D01*
X147014836Y-91316642D01*
X147010169Y-91344177D01*
X147007642Y-91385981D01*
X147006602Y-91446973D01*
X147006400Y-91532073D01*
X147006303Y-91575234D01*
X147005674Y-91646224D01*
X147004556Y-91703076D01*
X147003063Y-91740828D01*
X147001309Y-91754514D01*
X147000785Y-91754468D01*
X146982973Y-91749420D01*
X146950509Y-91738580D01*
X146904800Y-91722646D01*
X146904823Y-91517237D01*
X146904857Y-91498951D01*
X146906778Y-91403626D01*
X146912678Y-91331543D01*
X146924001Y-91277813D01*
X146942187Y-91237549D01*
X146968679Y-91205861D01*
X147004918Y-91177861D01*
X147040263Y-91160333D01*
X147096773Y-91146785D01*
X147152356Y-91146015D01*
X147195086Y-91159195D01*
X147198298Y-91161015D01*
X147208205Y-91160820D01*
X147214975Y-91145572D01*
X147219861Y-91110613D01*
X147224114Y-91051289D01*
X147231371Y-90929547D01*
X147278543Y-90949444D01*
G37*
X146689483Y-91160569D02*
X146739376Y-91189661D01*
X146761325Y-91212327D01*
X146803504Y-91280082D01*
X146817714Y-91353950D01*
X146817714Y-91404770D01*
X146770999Y-91385128D01*
X146738692Y-91365308D01*
X146713231Y-91324160D01*
X146710616Y-91315675D01*
X146682478Y-91272451D01*
X146640067Y-91249103D01*
X146591370Y-91248100D01*
X146544373Y-91271914D01*
X146537357Y-91278056D01*
X146513893Y-91304745D01*
X146510019Y-91328014D01*
X146527768Y-91350862D01*
X146569179Y-91376287D01*
X146636286Y-91407288D01*
X146640824Y-91409252D01*
X146715322Y-91443990D01*
X146766203Y-91474763D01*
X146797525Y-91505488D01*
X146813343Y-91540082D01*
X146817714Y-91582462D01*
X146811986Y-91629446D01*
X146783062Y-91689585D01*
X146732178Y-91732788D01*
X146695374Y-91745759D01*
X146643434Y-91752856D01*
X146592999Y-91751340D01*
X146556983Y-91740632D01*
X146553158Y-91737966D01*
X146542998Y-91719337D01*
X146550048Y-91686505D01*
X146562297Y-91660735D01*
X146581939Y-91650006D01*
X146619191Y-91650539D01*
X146670908Y-91647462D01*
X146704701Y-91626212D01*
X146716114Y-91586877D01*
X146716104Y-91585747D01*
X146709187Y-91562913D01*
X146685659Y-91541963D01*
X146639914Y-91517815D01*
X146577704Y-91488741D01*
X146536499Y-91472925D01*
X146512712Y-91473944D01*
X146501597Y-91494837D01*
X146498408Y-91538641D01*
X146498400Y-91608393D01*
X146498044Y-91651452D01*
X146496413Y-91704626D01*
X146493761Y-91741022D01*
X146490422Y-91754514D01*
X146489530Y-91754423D01*
X146470237Y-91747110D01*
X146438284Y-91731678D01*
X146394124Y-91708842D01*
X146399371Y-91503078D01*
X146399736Y-91489432D01*
X146403904Y-91393651D01*
X146411268Y-91321462D01*
X146423330Y-91268058D01*
X146441593Y-91228633D01*
X146467560Y-91198380D01*
X146502733Y-91172493D01*
X146503384Y-91172087D01*
X146560256Y-91150968D01*
X146626033Y-91147400D01*
X146689483Y-91160569D01*
G36*
X146689483Y-91160569D02*
G01*
X146739376Y-91189661D01*
X146761325Y-91212327D01*
X146803504Y-91280082D01*
X146817714Y-91353950D01*
X146817714Y-91404770D01*
X146770999Y-91385128D01*
X146738692Y-91365308D01*
X146713231Y-91324160D01*
X146710616Y-91315675D01*
X146682478Y-91272451D01*
X146640067Y-91249103D01*
X146591370Y-91248100D01*
X146544373Y-91271914D01*
X146537357Y-91278056D01*
X146513893Y-91304745D01*
X146510019Y-91328014D01*
X146527768Y-91350862D01*
X146569179Y-91376287D01*
X146636286Y-91407288D01*
X146640824Y-91409252D01*
X146715322Y-91443990D01*
X146766203Y-91474763D01*
X146797525Y-91505488D01*
X146813343Y-91540082D01*
X146817714Y-91582462D01*
X146811986Y-91629446D01*
X146783062Y-91689585D01*
X146732178Y-91732788D01*
X146695374Y-91745759D01*
X146643434Y-91752856D01*
X146592999Y-91751340D01*
X146556983Y-91740632D01*
X146553158Y-91737966D01*
X146542998Y-91719337D01*
X146550048Y-91686505D01*
X146562297Y-91660735D01*
X146581939Y-91650006D01*
X146619191Y-91650539D01*
X146670908Y-91647462D01*
X146704701Y-91626212D01*
X146716114Y-91586877D01*
X146716104Y-91585747D01*
X146709187Y-91562913D01*
X146685659Y-91541963D01*
X146639914Y-91517815D01*
X146577704Y-91488741D01*
X146536499Y-91472925D01*
X146512712Y-91473944D01*
X146501597Y-91494837D01*
X146498408Y-91538641D01*
X146498400Y-91608393D01*
X146498044Y-91651452D01*
X146496413Y-91704626D01*
X146493761Y-91741022D01*
X146490422Y-91754514D01*
X146489530Y-91754423D01*
X146470237Y-91747110D01*
X146438284Y-91731678D01*
X146394124Y-91708842D01*
X146399371Y-91503078D01*
X146399736Y-91489432D01*
X146403904Y-91393651D01*
X146411268Y-91321462D01*
X146423330Y-91268058D01*
X146441593Y-91228633D01*
X146467560Y-91198380D01*
X146502733Y-91172493D01*
X146503384Y-91172087D01*
X146560256Y-91150968D01*
X146626033Y-91147400D01*
X146689483Y-91160569D01*
G37*
X146713933Y-86442371D02*
X146789856Y-86442865D01*
X146844491Y-86444135D01*
X146881500Y-86446547D01*
X146904547Y-86450467D01*
X146917296Y-86456262D01*
X146923411Y-86464299D01*
X146926556Y-86474943D01*
X146926646Y-86475325D01*
X146931814Y-86500347D01*
X146941209Y-86548681D01*
X146953867Y-86615260D01*
X146968825Y-86695014D01*
X146985119Y-86782875D01*
X146986448Y-86790064D01*
X147002691Y-86875340D01*
X147017805Y-86950242D01*
X147030808Y-87010219D01*
X147040715Y-87050717D01*
X147046544Y-87067184D01*
X147046575Y-87067210D01*
X147064943Y-87076320D01*
X147102640Y-87091457D01*
X147151543Y-87109358D01*
X147154297Y-87110330D01*
X147216817Y-87133959D01*
X147289543Y-87163595D01*
X147357294Y-87193062D01*
X147468703Y-87243626D01*
X147715399Y-87075160D01*
X147732775Y-87063311D01*
X147807202Y-87012947D01*
X147873614Y-86968612D01*
X147928039Y-86932916D01*
X147966506Y-86908471D01*
X147985042Y-86897889D01*
X147997743Y-86900315D01*
X148026579Y-86919110D01*
X148071143Y-86956330D01*
X148132670Y-87013020D01*
X148212398Y-87090227D01*
X148219532Y-87097255D01*
X148282796Y-87160222D01*
X148338990Y-87217268D01*
X148384677Y-87264817D01*
X148416414Y-87299297D01*
X148430764Y-87317131D01*
X148430810Y-87317217D01*
X148432633Y-87330795D01*
X148425910Y-87352820D01*
X148408946Y-87386304D01*
X148380044Y-87434261D01*
X148337508Y-87499704D01*
X148279644Y-87585645D01*
X148269783Y-87600151D01*
X148219913Y-87673635D01*
X148175905Y-87738687D01*
X148140380Y-87791417D01*
X148115959Y-87827936D01*
X148105264Y-87844356D01*
X148104458Y-87847834D01*
X148109518Y-87873785D01*
X148124677Y-87916159D01*
X148147463Y-87967728D01*
X148178429Y-88035170D01*
X148213004Y-88115195D01*
X148242366Y-88187629D01*
X148249645Y-88206377D01*
X148268710Y-88254246D01*
X148282715Y-88287596D01*
X148289041Y-88300114D01*
X148296025Y-88301050D01*
X148327413Y-88306461D01*
X148378787Y-88315806D01*
X148444802Y-88328069D01*
X148520113Y-88342232D01*
X148599375Y-88357280D01*
X148677243Y-88372195D01*
X148748370Y-88385961D01*
X148807412Y-88397562D01*
X148849022Y-88405980D01*
X148867857Y-88410199D01*
X148870980Y-88411389D01*
X148878591Y-88417805D01*
X148884254Y-88431465D01*
X148888251Y-88455999D01*
X148890866Y-88495038D01*
X148892384Y-88552213D01*
X148893086Y-88631154D01*
X148893257Y-88735492D01*
X148893257Y-89052799D01*
X148817057Y-89067839D01*
X148807840Y-89069642D01*
X148758891Y-89078980D01*
X148691205Y-89091669D01*
X148612478Y-89106273D01*
X148530400Y-89121355D01*
X148498078Y-89127422D01*
X148425855Y-89142181D01*
X148365666Y-89156137D01*
X148323040Y-89167952D01*
X148303510Y-89176287D01*
X148294660Y-89189905D01*
X148278548Y-89225938D01*
X148262065Y-89272572D01*
X148256263Y-89290034D01*
X148234906Y-89347358D01*
X148207359Y-89415201D01*
X148178107Y-89482355D01*
X148162463Y-89517430D01*
X148140174Y-89569822D01*
X148124857Y-89609058D01*
X148119162Y-89628563D01*
X148119478Y-89630036D01*
X148130281Y-89650729D01*
X148154638Y-89690665D01*
X148190081Y-89745972D01*
X148234136Y-89812781D01*
X148284332Y-89887220D01*
X148449501Y-90129623D01*
X148232503Y-90346983D01*
X148211516Y-90367899D01*
X148147342Y-90430505D01*
X148089990Y-90484495D01*
X148042820Y-90526826D01*
X148009192Y-90554457D01*
X147992467Y-90564343D01*
X147974303Y-90556821D01*
X147936265Y-90535227D01*
X147882726Y-90502151D01*
X147817884Y-90460191D01*
X147745940Y-90411943D01*
X147675275Y-90364291D01*
X147611526Y-90322328D01*
X147559513Y-90289165D01*
X147523279Y-90267378D01*
X147506867Y-90259543D01*
X147505905Y-90259614D01*
X147484103Y-90267338D01*
X147445440Y-90285323D01*
X147397612Y-90310013D01*
X147397110Y-90310284D01*
X147333587Y-90342099D01*
X147290060Y-90357642D01*
X147263052Y-90357685D01*
X147249090Y-90343000D01*
X147243180Y-90328544D01*
X147227229Y-90289831D01*
X147202660Y-90230316D01*
X147170779Y-90153165D01*
X147132893Y-90061541D01*
X147090310Y-89958607D01*
X147044337Y-89847526D01*
X147002667Y-89746472D01*
X146960268Y-89642780D01*
X146922756Y-89550119D01*
X146891388Y-89471642D01*
X146867425Y-89410500D01*
X146852123Y-89369843D01*
X146846743Y-89352825D01*
X146857018Y-89337219D01*
X146885563Y-89311162D01*
X146925971Y-89280887D01*
X147022979Y-89201684D01*
X147109793Y-89100475D01*
X147173322Y-88989116D01*
X147213177Y-88870893D01*
X147228965Y-88749095D01*
X147220296Y-88627010D01*
X147186778Y-88507925D01*
X147128021Y-88395129D01*
X147043632Y-88291911D01*
X146999631Y-88251713D01*
X146894211Y-88180638D01*
X146781410Y-88134301D01*
X146664525Y-88111599D01*
X146546853Y-88111428D01*
X146431690Y-88132687D01*
X146322335Y-88174270D01*
X146222083Y-88235076D01*
X146134233Y-88314001D01*
X146062080Y-88409941D01*
X146008922Y-88521795D01*
X145978057Y-88648457D01*
X145972392Y-88709507D01*
X145980185Y-88841776D01*
X146015284Y-88967266D01*
X146076649Y-89083759D01*
X146163243Y-89189039D01*
X146274029Y-89280887D01*
X146312931Y-89309930D01*
X146342104Y-89336272D01*
X146353257Y-89352800D01*
X146348810Y-89367209D01*
X146334378Y-89405815D01*
X146311173Y-89465201D01*
X146280452Y-89542215D01*
X146243474Y-89633703D01*
X146201496Y-89736516D01*
X146155778Y-89847502D01*
X146114178Y-89948072D01*
X146071222Y-90051947D01*
X146032829Y-90144819D01*
X146000305Y-90223525D01*
X145974958Y-90284899D01*
X145958095Y-90325779D01*
X145951025Y-90343000D01*
X145950943Y-90343204D01*
X145936798Y-90357745D01*
X145909659Y-90357579D01*
X145866023Y-90341927D01*
X145802388Y-90310013D01*
X145797379Y-90307326D01*
X145750125Y-90283150D01*
X145712811Y-90266037D01*
X145693133Y-90259543D01*
X145677005Y-90267218D01*
X145640959Y-90288871D01*
X145589092Y-90321928D01*
X145525445Y-90363810D01*
X145454060Y-90411943D01*
X145383724Y-90459131D01*
X145318670Y-90501267D01*
X145264820Y-90534578D01*
X145226374Y-90556469D01*
X145207534Y-90564343D01*
X145204325Y-90563343D01*
X145181954Y-90547584D01*
X145143733Y-90515033D01*
X145093021Y-90468733D01*
X145033181Y-90411726D01*
X144967571Y-90347058D01*
X144750648Y-90129772D01*
X144919601Y-89881253D01*
X145088553Y-89632733D01*
X145037183Y-89521595D01*
X145037031Y-89521266D01*
X145006183Y-89450418D01*
X144974661Y-89371523D01*
X144949266Y-89301600D01*
X144945423Y-89290322D01*
X144926047Y-89237967D01*
X144908574Y-89197283D01*
X144896388Y-89176287D01*
X144891426Y-89173322D01*
X144861634Y-89163375D01*
X144811047Y-89150505D01*
X144745194Y-89136053D01*
X144669600Y-89121355D01*
X144646957Y-89117210D01*
X144565038Y-89102116D01*
X144488600Y-89087899D01*
X144425337Y-89075995D01*
X144382943Y-89067839D01*
X144306743Y-89052799D01*
X144306743Y-88735492D01*
X144306760Y-88696476D01*
X144307082Y-88601292D01*
X144308033Y-88530255D01*
X144309896Y-88479734D01*
X144312955Y-88446098D01*
X144317494Y-88425718D01*
X144323795Y-88414962D01*
X144332143Y-88410199D01*
X144340224Y-88408270D01*
X144373172Y-88401445D01*
X144425736Y-88391022D01*
X144492569Y-88378018D01*
X144568328Y-88363449D01*
X144647665Y-88348333D01*
X144725237Y-88333685D01*
X144795698Y-88320523D01*
X144853702Y-88309863D01*
X144893904Y-88302721D01*
X144910959Y-88300114D01*
X144912112Y-88298541D01*
X144921385Y-88278119D01*
X144937432Y-88239045D01*
X144957635Y-88187629D01*
X144985672Y-88118353D01*
X145020186Y-88038290D01*
X145052538Y-87967728D01*
X145059952Y-87951889D01*
X145080755Y-87902293D01*
X145093219Y-87864038D01*
X145094863Y-87844356D01*
X145094015Y-87842962D01*
X145080548Y-87822420D01*
X145053850Y-87782516D01*
X145016539Y-87727140D01*
X144971234Y-87660177D01*
X144920552Y-87585517D01*
X144863445Y-87500692D01*
X144820607Y-87434800D01*
X144791460Y-87386478D01*
X144774317Y-87352733D01*
X144767495Y-87330572D01*
X144769306Y-87317002D01*
X144769915Y-87315984D01*
X144786297Y-87296210D01*
X144819695Y-87260175D01*
X144866671Y-87211451D01*
X144923786Y-87153612D01*
X144987603Y-87090227D01*
X145053802Y-87025905D01*
X145118648Y-86965447D01*
X145166299Y-86924655D01*
X145197990Y-86902484D01*
X145214958Y-86897889D01*
X145217175Y-86898921D01*
X145240524Y-86912837D01*
X145282912Y-86940030D01*
X145340369Y-86977889D01*
X145408923Y-87023803D01*
X145484601Y-87075160D01*
X145731298Y-87243626D01*
X145842706Y-87193062D01*
X145845943Y-87191597D01*
X145914343Y-87161965D01*
X145986907Y-87132493D01*
X146048457Y-87109358D01*
X146048729Y-87109262D01*
X146097595Y-87091367D01*
X146135212Y-87076253D01*
X146153457Y-87067184D01*
X146153752Y-87066855D01*
X146159946Y-87048282D01*
X146170139Y-87006045D01*
X146183348Y-86944696D01*
X146198590Y-86868789D01*
X146214881Y-86782875D01*
X146215449Y-86779796D01*
X146231713Y-86692128D01*
X146246608Y-86612741D01*
X146259171Y-86546701D01*
X146268438Y-86499079D01*
X146273444Y-86474943D01*
X146273764Y-86473605D01*
X146277060Y-86463273D01*
X146283738Y-86455506D01*
X146297462Y-86449940D01*
X146321895Y-86446207D01*
X146360702Y-86443942D01*
X146417546Y-86442778D01*
X146496090Y-86442348D01*
X146600000Y-86442286D01*
X146613056Y-86442286D01*
X146713933Y-86442371D01*
G36*
X146713933Y-86442371D02*
G01*
X146789856Y-86442865D01*
X146844491Y-86444135D01*
X146881500Y-86446547D01*
X146904547Y-86450467D01*
X146917296Y-86456262D01*
X146923411Y-86464299D01*
X146926556Y-86474943D01*
X146926646Y-86475325D01*
X146931814Y-86500347D01*
X146941209Y-86548681D01*
X146953867Y-86615260D01*
X146968825Y-86695014D01*
X146985119Y-86782875D01*
X146986448Y-86790064D01*
X147002691Y-86875340D01*
X147017805Y-86950242D01*
X147030808Y-87010219D01*
X147040715Y-87050717D01*
X147046544Y-87067184D01*
X147046575Y-87067210D01*
X147064943Y-87076320D01*
X147102640Y-87091457D01*
X147151543Y-87109358D01*
X147154297Y-87110330D01*
X147216817Y-87133959D01*
X147289543Y-87163595D01*
X147357294Y-87193062D01*
X147468703Y-87243626D01*
X147715399Y-87075160D01*
X147732775Y-87063311D01*
X147807202Y-87012947D01*
X147873614Y-86968612D01*
X147928039Y-86932916D01*
X147966506Y-86908471D01*
X147985042Y-86897889D01*
X147997743Y-86900315D01*
X148026579Y-86919110D01*
X148071143Y-86956330D01*
X148132670Y-87013020D01*
X148212398Y-87090227D01*
X148219532Y-87097255D01*
X148282796Y-87160222D01*
X148338990Y-87217268D01*
X148384677Y-87264817D01*
X148416414Y-87299297D01*
X148430764Y-87317131D01*
X148430810Y-87317217D01*
X148432633Y-87330795D01*
X148425910Y-87352820D01*
X148408946Y-87386304D01*
X148380044Y-87434261D01*
X148337508Y-87499704D01*
X148279644Y-87585645D01*
X148269783Y-87600151D01*
X148219913Y-87673635D01*
X148175905Y-87738687D01*
X148140380Y-87791417D01*
X148115959Y-87827936D01*
X148105264Y-87844356D01*
X148104458Y-87847834D01*
X148109518Y-87873785D01*
X148124677Y-87916159D01*
X148147463Y-87967728D01*
X148178429Y-88035170D01*
X148213004Y-88115195D01*
X148242366Y-88187629D01*
X148249645Y-88206377D01*
X148268710Y-88254246D01*
X148282715Y-88287596D01*
X148289041Y-88300114D01*
X148296025Y-88301050D01*
X148327413Y-88306461D01*
X148378787Y-88315806D01*
X148444802Y-88328069D01*
X148520113Y-88342232D01*
X148599375Y-88357280D01*
X148677243Y-88372195D01*
X148748370Y-88385961D01*
X148807412Y-88397562D01*
X148849022Y-88405980D01*
X148867857Y-88410199D01*
X148870980Y-88411389D01*
X148878591Y-88417805D01*
X148884254Y-88431465D01*
X148888251Y-88455999D01*
X148890866Y-88495038D01*
X148892384Y-88552213D01*
X148893086Y-88631154D01*
X148893257Y-88735492D01*
X148893257Y-89052799D01*
X148817057Y-89067839D01*
X148807840Y-89069642D01*
X148758891Y-89078980D01*
X148691205Y-89091669D01*
X148612478Y-89106273D01*
X148530400Y-89121355D01*
X148498078Y-89127422D01*
X148425855Y-89142181D01*
X148365666Y-89156137D01*
X148323040Y-89167952D01*
X148303510Y-89176287D01*
X148294660Y-89189905D01*
X148278548Y-89225938D01*
X148262065Y-89272572D01*
X148256263Y-89290034D01*
X148234906Y-89347358D01*
X148207359Y-89415201D01*
X148178107Y-89482355D01*
X148162463Y-89517430D01*
X148140174Y-89569822D01*
X148124857Y-89609058D01*
X148119162Y-89628563D01*
X148119478Y-89630036D01*
X148130281Y-89650729D01*
X148154638Y-89690665D01*
X148190081Y-89745972D01*
X148234136Y-89812781D01*
X148284332Y-89887220D01*
X148449501Y-90129623D01*
X148232503Y-90346983D01*
X148211516Y-90367899D01*
X148147342Y-90430505D01*
X148089990Y-90484495D01*
X148042820Y-90526826D01*
X148009192Y-90554457D01*
X147992467Y-90564343D01*
X147974303Y-90556821D01*
X147936265Y-90535227D01*
X147882726Y-90502151D01*
X147817884Y-90460191D01*
X147745940Y-90411943D01*
X147675275Y-90364291D01*
X147611526Y-90322328D01*
X147559513Y-90289165D01*
X147523279Y-90267378D01*
X147506867Y-90259543D01*
X147505905Y-90259614D01*
X147484103Y-90267338D01*
X147445440Y-90285323D01*
X147397612Y-90310013D01*
X147397110Y-90310284D01*
X147333587Y-90342099D01*
X147290060Y-90357642D01*
X147263052Y-90357685D01*
X147249090Y-90343000D01*
X147243180Y-90328544D01*
X147227229Y-90289831D01*
X147202660Y-90230316D01*
X147170779Y-90153165D01*
X147132893Y-90061541D01*
X147090310Y-89958607D01*
X147044337Y-89847526D01*
X147002667Y-89746472D01*
X146960268Y-89642780D01*
X146922756Y-89550119D01*
X146891388Y-89471642D01*
X146867425Y-89410500D01*
X146852123Y-89369843D01*
X146846743Y-89352825D01*
X146857018Y-89337219D01*
X146885563Y-89311162D01*
X146925971Y-89280887D01*
X147022979Y-89201684D01*
X147109793Y-89100475D01*
X147173322Y-88989116D01*
X147213177Y-88870893D01*
X147228965Y-88749095D01*
X147220296Y-88627010D01*
X147186778Y-88507925D01*
X147128021Y-88395129D01*
X147043632Y-88291911D01*
X146999631Y-88251713D01*
X146894211Y-88180638D01*
X146781410Y-88134301D01*
X146664525Y-88111599D01*
X146546853Y-88111428D01*
X146431690Y-88132687D01*
X146322335Y-88174270D01*
X146222083Y-88235076D01*
X146134233Y-88314001D01*
X146062080Y-88409941D01*
X146008922Y-88521795D01*
X145978057Y-88648457D01*
X145972392Y-88709507D01*
X145980185Y-88841776D01*
X146015284Y-88967266D01*
X146076649Y-89083759D01*
X146163243Y-89189039D01*
X146274029Y-89280887D01*
X146312931Y-89309930D01*
X146342104Y-89336272D01*
X146353257Y-89352800D01*
X146348810Y-89367209D01*
X146334378Y-89405815D01*
X146311173Y-89465201D01*
X146280452Y-89542215D01*
X146243474Y-89633703D01*
X146201496Y-89736516D01*
X146155778Y-89847502D01*
X146114178Y-89948072D01*
X146071222Y-90051947D01*
X146032829Y-90144819D01*
X146000305Y-90223525D01*
X145974958Y-90284899D01*
X145958095Y-90325779D01*
X145951025Y-90343000D01*
X145950943Y-90343204D01*
X145936798Y-90357745D01*
X145909659Y-90357579D01*
X145866023Y-90341927D01*
X145802388Y-90310013D01*
X145797379Y-90307326D01*
X145750125Y-90283150D01*
X145712811Y-90266037D01*
X145693133Y-90259543D01*
X145677005Y-90267218D01*
X145640959Y-90288871D01*
X145589092Y-90321928D01*
X145525445Y-90363810D01*
X145454060Y-90411943D01*
X145383724Y-90459131D01*
X145318670Y-90501267D01*
X145264820Y-90534578D01*
X145226374Y-90556469D01*
X145207534Y-90564343D01*
X145204325Y-90563343D01*
X145181954Y-90547584D01*
X145143733Y-90515033D01*
X145093021Y-90468733D01*
X145033181Y-90411726D01*
X144967571Y-90347058D01*
X144750648Y-90129772D01*
X144919601Y-89881253D01*
X145088553Y-89632733D01*
X145037183Y-89521595D01*
X145037031Y-89521266D01*
X145006183Y-89450418D01*
X144974661Y-89371523D01*
X144949266Y-89301600D01*
X144945423Y-89290322D01*
X144926047Y-89237967D01*
X144908574Y-89197283D01*
X144896388Y-89176287D01*
X144891426Y-89173322D01*
X144861634Y-89163375D01*
X144811047Y-89150505D01*
X144745194Y-89136053D01*
X144669600Y-89121355D01*
X144646957Y-89117210D01*
X144565038Y-89102116D01*
X144488600Y-89087899D01*
X144425337Y-89075995D01*
X144382943Y-89067839D01*
X144306743Y-89052799D01*
X144306743Y-88735492D01*
X144306760Y-88696476D01*
X144307082Y-88601292D01*
X144308033Y-88530255D01*
X144309896Y-88479734D01*
X144312955Y-88446098D01*
X144317494Y-88425718D01*
X144323795Y-88414962D01*
X144332143Y-88410199D01*
X144340224Y-88408270D01*
X144373172Y-88401445D01*
X144425736Y-88391022D01*
X144492569Y-88378018D01*
X144568328Y-88363449D01*
X144647665Y-88348333D01*
X144725237Y-88333685D01*
X144795698Y-88320523D01*
X144853702Y-88309863D01*
X144893904Y-88302721D01*
X144910959Y-88300114D01*
X144912112Y-88298541D01*
X144921385Y-88278119D01*
X144937432Y-88239045D01*
X144957635Y-88187629D01*
X144985672Y-88118353D01*
X145020186Y-88038290D01*
X145052538Y-87967728D01*
X145059952Y-87951889D01*
X145080755Y-87902293D01*
X145093219Y-87864038D01*
X145094863Y-87844356D01*
X145094015Y-87842962D01*
X145080548Y-87822420D01*
X145053850Y-87782516D01*
X145016539Y-87727140D01*
X144971234Y-87660177D01*
X144920552Y-87585517D01*
X144863445Y-87500692D01*
X144820607Y-87434800D01*
X144791460Y-87386478D01*
X144774317Y-87352733D01*
X144767495Y-87330572D01*
X144769306Y-87317002D01*
X144769915Y-87315984D01*
X144786297Y-87296210D01*
X144819695Y-87260175D01*
X144866671Y-87211451D01*
X144923786Y-87153612D01*
X144987603Y-87090227D01*
X145053802Y-87025905D01*
X145118648Y-86965447D01*
X145166299Y-86924655D01*
X145197990Y-86902484D01*
X145214958Y-86897889D01*
X145217175Y-86898921D01*
X145240524Y-86912837D01*
X145282912Y-86940030D01*
X145340369Y-86977889D01*
X145408923Y-87023803D01*
X145484601Y-87075160D01*
X145731298Y-87243626D01*
X145842706Y-87193062D01*
X145845943Y-87191597D01*
X145914343Y-87161965D01*
X145986907Y-87132493D01*
X146048457Y-87109358D01*
X146048729Y-87109262D01*
X146097595Y-87091367D01*
X146135212Y-87076253D01*
X146153457Y-87067184D01*
X146153752Y-87066855D01*
X146159946Y-87048282D01*
X146170139Y-87006045D01*
X146183348Y-86944696D01*
X146198590Y-86868789D01*
X146214881Y-86782875D01*
X146215449Y-86779796D01*
X146231713Y-86692128D01*
X146246608Y-86612741D01*
X146259171Y-86546701D01*
X146268438Y-86499079D01*
X146273444Y-86474943D01*
X146273764Y-86473605D01*
X146277060Y-86463273D01*
X146283738Y-86455506D01*
X146297462Y-86449940D01*
X146321895Y-86446207D01*
X146360702Y-86443942D01*
X146417546Y-86442778D01*
X146496090Y-86442348D01*
X146600000Y-86442286D01*
X146613056Y-86442286D01*
X146713933Y-86442371D01*
G37*
X144567495Y-91146220D02*
X144598599Y-91154121D01*
X144627559Y-91173817D01*
X144664831Y-91210484D01*
X144688801Y-91236378D01*
X144713770Y-91269997D01*
X144725031Y-91301506D01*
X144727657Y-91341485D01*
X144727657Y-91406917D01*
X144683035Y-91383842D01*
X144647673Y-91355724D01*
X144623451Y-91317848D01*
X144619291Y-91307551D01*
X144587594Y-91267637D01*
X144543554Y-91247624D01*
X144495531Y-91249572D01*
X144451886Y-91275543D01*
X144433420Y-91296635D01*
X144422663Y-91323619D01*
X144434178Y-91347634D01*
X144469981Y-91371791D01*
X144532090Y-91399199D01*
X144541515Y-91402985D01*
X144598058Y-91427759D01*
X144646580Y-91452189D01*
X144677451Y-91471486D01*
X144708371Y-91505953D01*
X144728927Y-91560957D01*
X144726744Y-91619983D01*
X144702424Y-91675845D01*
X144656568Y-91721355D01*
X144619438Y-91740727D01*
X144547711Y-91754292D01*
X144507852Y-91752462D01*
X144470953Y-91742568D01*
X144456797Y-91721806D01*
X144462091Y-91687613D01*
X144463631Y-91683092D01*
X144475842Y-91659116D01*
X144496174Y-91650042D01*
X144534908Y-91650649D01*
X144562257Y-91651474D01*
X144594257Y-91644392D01*
X144616182Y-91623219D01*
X144628670Y-91597152D01*
X144630062Y-91569845D01*
X144629998Y-91569685D01*
X144613807Y-91554930D01*
X144579155Y-91533457D01*
X144534321Y-91509458D01*
X144487582Y-91487125D01*
X144447217Y-91470652D01*
X144421504Y-91464229D01*
X144417679Y-91470518D01*
X144412864Y-91500115D01*
X144409566Y-91548447D01*
X144408343Y-91609372D01*
X144408058Y-91651542D01*
X144406718Y-91704653D01*
X144404528Y-91741025D01*
X144401769Y-91754514D01*
X144387344Y-91749981D01*
X144358226Y-91737670D01*
X144321257Y-91720826D01*
X144321257Y-91504721D01*
X144321493Y-91449327D01*
X144323729Y-91365207D01*
X144329423Y-91302800D01*
X144339903Y-91257358D01*
X144356497Y-91224133D01*
X144380531Y-91198378D01*
X144413333Y-91175344D01*
X144455124Y-91156335D01*
X144532287Y-91144914D01*
X144567495Y-91146220D01*
G36*
X144567495Y-91146220D02*
G01*
X144598599Y-91154121D01*
X144627559Y-91173817D01*
X144664831Y-91210484D01*
X144688801Y-91236378D01*
X144713770Y-91269997D01*
X144725031Y-91301506D01*
X144727657Y-91341485D01*
X144727657Y-91406917D01*
X144683035Y-91383842D01*
X144647673Y-91355724D01*
X144623451Y-91317848D01*
X144619291Y-91307551D01*
X144587594Y-91267637D01*
X144543554Y-91247624D01*
X144495531Y-91249572D01*
X144451886Y-91275543D01*
X144433420Y-91296635D01*
X144422663Y-91323619D01*
X144434178Y-91347634D01*
X144469981Y-91371791D01*
X144532090Y-91399199D01*
X144541515Y-91402985D01*
X144598058Y-91427759D01*
X144646580Y-91452189D01*
X144677451Y-91471486D01*
X144708371Y-91505953D01*
X144728927Y-91560957D01*
X144726744Y-91619983D01*
X144702424Y-91675845D01*
X144656568Y-91721355D01*
X144619438Y-91740727D01*
X144547711Y-91754292D01*
X144507852Y-91752462D01*
X144470953Y-91742568D01*
X144456797Y-91721806D01*
X144462091Y-91687613D01*
X144463631Y-91683092D01*
X144475842Y-91659116D01*
X144496174Y-91650042D01*
X144534908Y-91650649D01*
X144562257Y-91651474D01*
X144594257Y-91644392D01*
X144616182Y-91623219D01*
X144628670Y-91597152D01*
X144630062Y-91569845D01*
X144629998Y-91569685D01*
X144613807Y-91554930D01*
X144579155Y-91533457D01*
X144534321Y-91509458D01*
X144487582Y-91487125D01*
X144447217Y-91470652D01*
X144421504Y-91464229D01*
X144417679Y-91470518D01*
X144412864Y-91500115D01*
X144409566Y-91548447D01*
X144408343Y-91609372D01*
X144408058Y-91651542D01*
X144406718Y-91704653D01*
X144404528Y-91741025D01*
X144401769Y-91754514D01*
X144387344Y-91749981D01*
X144358226Y-91737670D01*
X144321257Y-91720826D01*
X144321257Y-91504721D01*
X144321493Y-91449327D01*
X144323729Y-91365207D01*
X144329423Y-91302800D01*
X144339903Y-91257358D01*
X144356497Y-91224133D01*
X144380531Y-91198378D01*
X144413333Y-91175344D01*
X144455124Y-91156335D01*
X144532287Y-91144914D01*
X144567495Y-91146220D01*
G37*
X148762299Y-91394055D02*
X148757684Y-91504078D01*
X148755078Y-91527387D01*
X148735660Y-91610352D01*
X148700573Y-91673448D01*
X148647212Y-91721808D01*
X148644196Y-91723804D01*
X148576362Y-91752185D01*
X148505535Y-91754711D01*
X148437289Y-91733097D01*
X148377196Y-91689062D01*
X148330829Y-91624322D01*
X148330050Y-91622761D01*
X148314643Y-91582558D01*
X148303357Y-91536866D01*
X148297370Y-91493972D01*
X148297861Y-91462160D01*
X148306007Y-91449714D01*
X148313244Y-91450471D01*
X148347851Y-91464235D01*
X148387078Y-91489546D01*
X148420448Y-91518845D01*
X148437483Y-91544572D01*
X148455192Y-91579471D01*
X148491485Y-91611212D01*
X148533630Y-91623886D01*
X148549077Y-91620221D01*
X148579569Y-91601774D01*
X148606128Y-91576166D01*
X148617486Y-91552934D01*
X148617482Y-91552848D01*
X148604596Y-91542179D01*
X148570241Y-91522933D01*
X148519593Y-91497813D01*
X148457829Y-91469524D01*
X148457489Y-91469374D01*
X148390388Y-91439498D01*
X148345411Y-91417973D01*
X148318145Y-91401437D01*
X148304178Y-91386531D01*
X148299097Y-91369893D01*
X148298490Y-91348162D01*
X148302712Y-91307013D01*
X148446000Y-91307013D01*
X148460791Y-91319949D01*
X148497644Y-91339333D01*
X148498725Y-91339881D01*
X148542205Y-91360587D01*
X148581102Y-91377105D01*
X148605778Y-91384093D01*
X148615676Y-91374753D01*
X148617486Y-91342748D01*
X148609966Y-91302915D01*
X148583897Y-91266717D01*
X148546154Y-91247950D01*
X148504077Y-91249845D01*
X148465005Y-91275632D01*
X148449647Y-91293451D01*
X148446000Y-91307013D01*
X148302712Y-91307013D01*
X148303833Y-91296086D01*
X148330251Y-91225335D01*
X148374473Y-91169735D01*
X148431697Y-91131239D01*
X148497120Y-91111797D01*
X148565937Y-91113359D01*
X148633347Y-91137878D01*
X148694544Y-91187302D01*
X148728450Y-91236212D01*
X148752806Y-91306027D01*
X148756767Y-91342748D01*
X148762299Y-91394055D01*
G36*
X148762299Y-91394055D02*
G01*
X148757684Y-91504078D01*
X148755078Y-91527387D01*
X148735660Y-91610352D01*
X148700573Y-91673448D01*
X148647212Y-91721808D01*
X148644196Y-91723804D01*
X148576362Y-91752185D01*
X148505535Y-91754711D01*
X148437289Y-91733097D01*
X148377196Y-91689062D01*
X148330829Y-91624322D01*
X148330050Y-91622761D01*
X148314643Y-91582558D01*
X148303357Y-91536866D01*
X148297370Y-91493972D01*
X148297861Y-91462160D01*
X148306007Y-91449714D01*
X148313244Y-91450471D01*
X148347851Y-91464235D01*
X148387078Y-91489546D01*
X148420448Y-91518845D01*
X148437483Y-91544572D01*
X148455192Y-91579471D01*
X148491485Y-91611212D01*
X148533630Y-91623886D01*
X148549077Y-91620221D01*
X148579569Y-91601774D01*
X148606128Y-91576166D01*
X148617486Y-91552934D01*
X148617482Y-91552848D01*
X148604596Y-91542179D01*
X148570241Y-91522933D01*
X148519593Y-91497813D01*
X148457829Y-91469524D01*
X148457489Y-91469374D01*
X148390388Y-91439498D01*
X148345411Y-91417973D01*
X148318145Y-91401437D01*
X148304178Y-91386531D01*
X148299097Y-91369893D01*
X148298490Y-91348162D01*
X148302712Y-91307013D01*
X148446000Y-91307013D01*
X148460791Y-91319949D01*
X148497644Y-91339333D01*
X148498725Y-91339881D01*
X148542205Y-91360587D01*
X148581102Y-91377105D01*
X148605778Y-91384093D01*
X148615676Y-91374753D01*
X148617486Y-91342748D01*
X148609966Y-91302915D01*
X148583897Y-91266717D01*
X148546154Y-91247950D01*
X148504077Y-91249845D01*
X148465005Y-91275632D01*
X148449647Y-91293451D01*
X148446000Y-91307013D01*
X148302712Y-91307013D01*
X148303833Y-91296086D01*
X148330251Y-91225335D01*
X148374473Y-91169735D01*
X148431697Y-91131239D01*
X148497120Y-91111797D01*
X148565937Y-91113359D01*
X148633347Y-91137878D01*
X148694544Y-91187302D01*
X148728450Y-91236212D01*
X148752806Y-91306027D01*
X148756767Y-91342748D01*
X148762299Y-91394055D01*
G37*
X146207691Y-91166467D02*
X146212273Y-91169003D01*
X146249704Y-91198057D01*
X146283170Y-91235410D01*
X146289007Y-91243852D01*
X146300165Y-91263553D01*
X146308136Y-91286935D01*
X146313618Y-91319067D01*
X146317307Y-91365019D01*
X146319899Y-91429859D01*
X146322092Y-91518657D01*
X146322402Y-91533669D01*
X146323400Y-91630999D01*
X146321994Y-91699934D01*
X146318164Y-91740948D01*
X146311889Y-91754514D01*
X146292898Y-91750452D01*
X146260638Y-91738144D01*
X146253041Y-91734545D01*
X146241176Y-91726398D01*
X146232994Y-91713004D01*
X146227643Y-91689608D01*
X146224269Y-91651455D01*
X146222019Y-91593790D01*
X146220040Y-91511857D01*
X146219498Y-91487907D01*
X146217403Y-91412266D01*
X146214683Y-91359328D01*
X146210515Y-91324075D01*
X146204079Y-91301487D01*
X146194550Y-91286544D01*
X146181106Y-91274227D01*
X146141305Y-91252634D01*
X146092341Y-91248476D01*
X146048529Y-91264999D01*
X146017008Y-91299210D01*
X146004914Y-91348114D01*
X146004578Y-91361407D01*
X145997972Y-91385472D01*
X145978470Y-91389144D01*
X145940283Y-91374813D01*
X145931438Y-91370217D01*
X145907534Y-91343186D01*
X145907061Y-91302994D01*
X145929836Y-91247409D01*
X145950727Y-91217117D01*
X146004142Y-91174084D01*
X146070074Y-91149755D01*
X146140574Y-91146443D01*
X146207691Y-91166467D01*
G36*
X146207691Y-91166467D02*
G01*
X146212273Y-91169003D01*
X146249704Y-91198057D01*
X146283170Y-91235410D01*
X146289007Y-91243852D01*
X146300165Y-91263553D01*
X146308136Y-91286935D01*
X146313618Y-91319067D01*
X146317307Y-91365019D01*
X146319899Y-91429859D01*
X146322092Y-91518657D01*
X146322402Y-91533669D01*
X146323400Y-91630999D01*
X146321994Y-91699934D01*
X146318164Y-91740948D01*
X146311889Y-91754514D01*
X146292898Y-91750452D01*
X146260638Y-91738144D01*
X146253041Y-91734545D01*
X146241176Y-91726398D01*
X146232994Y-91713004D01*
X146227643Y-91689608D01*
X146224269Y-91651455D01*
X146222019Y-91593790D01*
X146220040Y-91511857D01*
X146219498Y-91487907D01*
X146217403Y-91412266D01*
X146214683Y-91359328D01*
X146210515Y-91324075D01*
X146204079Y-91301487D01*
X146194550Y-91286544D01*
X146181106Y-91274227D01*
X146141305Y-91252634D01*
X146092341Y-91248476D01*
X146048529Y-91264999D01*
X146017008Y-91299210D01*
X146004914Y-91348114D01*
X146004578Y-91361407D01*
X145997972Y-91385472D01*
X145978470Y-91389144D01*
X145940283Y-91374813D01*
X145931438Y-91370217D01*
X145907534Y-91343186D01*
X145907061Y-91302994D01*
X145929836Y-91247409D01*
X145950727Y-91217117D01*
X146004142Y-91174084D01*
X146070074Y-91149755D01*
X146140574Y-91146443D01*
X146207691Y-91166467D01*
G37*
X149309815Y-91501524D02*
X149311252Y-91613000D01*
X149311651Y-91645339D01*
X149312929Y-91753455D01*
X149313185Y-91836186D01*
X149311634Y-91896426D01*
X149307490Y-91937073D01*
X149299964Y-91961023D01*
X149288271Y-91971171D01*
X149271624Y-91970414D01*
X149249236Y-91961648D01*
X149220321Y-91947769D01*
X149214142Y-91944808D01*
X149188413Y-91930311D01*
X149174976Y-91913065D01*
X149169834Y-91884308D01*
X149168990Y-91835283D01*
X149168952Y-91747257D01*
X149078276Y-91747257D01*
X149022498Y-91744815D01*
X148978640Y-91734908D01*
X148942218Y-91714886D01*
X148939503Y-91712929D01*
X148902546Y-91679869D01*
X148876826Y-91639931D01*
X148860606Y-91587657D01*
X148852148Y-91517588D01*
X148850083Y-91438430D01*
X148994857Y-91438430D01*
X148994882Y-91451697D01*
X148996261Y-91511584D01*
X149000687Y-91550732D01*
X149009461Y-91576153D01*
X149023886Y-91594857D01*
X149024784Y-91595750D01*
X149060237Y-91619952D01*
X149094596Y-91617567D01*
X149133403Y-91588260D01*
X149142895Y-91578244D01*
X149156876Y-91557708D01*
X149164760Y-91530997D01*
X149168245Y-91490499D01*
X149169029Y-91428603D01*
X149168350Y-91391130D01*
X149160983Y-91322980D01*
X149144168Y-91278330D01*
X149116234Y-91253926D01*
X149075509Y-91246514D01*
X149058350Y-91248094D01*
X149028660Y-91263766D01*
X149009031Y-91298691D01*
X148998188Y-91355901D01*
X148994857Y-91438430D01*
X148850083Y-91438430D01*
X148849714Y-91424267D01*
X148850253Y-91356169D01*
X148852707Y-91304587D01*
X148858158Y-91268816D01*
X148867686Y-91242015D01*
X148882371Y-91217338D01*
X148895852Y-91198480D01*
X148944799Y-91147568D01*
X149000256Y-91119918D01*
X149069928Y-91111165D01*
X149149664Y-91119890D01*
X149218595Y-91151185D01*
X149273113Y-91206381D01*
X149277223Y-91212224D01*
X149286808Y-91227753D01*
X149294151Y-91245498D01*
X149299612Y-91269290D01*
X149303550Y-91302958D01*
X149306323Y-91350333D01*
X149308292Y-91415245D01*
X149308528Y-91428603D01*
X149309815Y-91501524D01*
G36*
X149309815Y-91501524D02*
G01*
X149311252Y-91613000D01*
X149311651Y-91645339D01*
X149312929Y-91753455D01*
X149313185Y-91836186D01*
X149311634Y-91896426D01*
X149307490Y-91937073D01*
X149299964Y-91961023D01*
X149288271Y-91971171D01*
X149271624Y-91970414D01*
X149249236Y-91961648D01*
X149220321Y-91947769D01*
X149214142Y-91944808D01*
X149188413Y-91930311D01*
X149174976Y-91913065D01*
X149169834Y-91884308D01*
X149168990Y-91835283D01*
X149168952Y-91747257D01*
X149078276Y-91747257D01*
X149022498Y-91744815D01*
X148978640Y-91734908D01*
X148942218Y-91714886D01*
X148939503Y-91712929D01*
X148902546Y-91679869D01*
X148876826Y-91639931D01*
X148860606Y-91587657D01*
X148852148Y-91517588D01*
X148850083Y-91438430D01*
X148994857Y-91438430D01*
X148994882Y-91451697D01*
X148996261Y-91511584D01*
X149000687Y-91550732D01*
X149009461Y-91576153D01*
X149023886Y-91594857D01*
X149024784Y-91595750D01*
X149060237Y-91619952D01*
X149094596Y-91617567D01*
X149133403Y-91588260D01*
X149142895Y-91578244D01*
X149156876Y-91557708D01*
X149164760Y-91530997D01*
X149168245Y-91490499D01*
X149169029Y-91428603D01*
X149168350Y-91391130D01*
X149160983Y-91322980D01*
X149144168Y-91278330D01*
X149116234Y-91253926D01*
X149075509Y-91246514D01*
X149058350Y-91248094D01*
X149028660Y-91263766D01*
X149009031Y-91298691D01*
X148998188Y-91355901D01*
X148994857Y-91438430D01*
X148850083Y-91438430D01*
X148849714Y-91424267D01*
X148850253Y-91356169D01*
X148852707Y-91304587D01*
X148858158Y-91268816D01*
X148867686Y-91242015D01*
X148882371Y-91217338D01*
X148895852Y-91198480D01*
X148944799Y-91147568D01*
X149000256Y-91119918D01*
X149069928Y-91111165D01*
X149149664Y-91119890D01*
X149218595Y-91151185D01*
X149273113Y-91206381D01*
X149277223Y-91212224D01*
X149286808Y-91227753D01*
X149294151Y-91245498D01*
X149299612Y-91269290D01*
X149303550Y-91302958D01*
X149306323Y-91350333D01*
X149308292Y-91415245D01*
X149308528Y-91428603D01*
X149309815Y-91501524D01*
G37*
D12*
%TO.C,R6*%
X142387742Y-78322500D02*
X142862258Y-78322500D01*
X142387742Y-77277500D02*
X142862258Y-77277500D01*
%TO.C,R5*%
X113677500Y-89862258D02*
X113677500Y-89387742D01*
X114722500Y-89862258D02*
X114722500Y-89387742D01*
%TO.C,R4*%
X138787742Y-108077500D02*
X139262258Y-108077500D01*
X138787742Y-109122500D02*
X139262258Y-109122500D01*
%TO.C,R3*%
X126212258Y-109322500D02*
X125737742Y-109322500D01*
X126212258Y-108277500D02*
X125737742Y-108277500D01*
%TO.C,R2*%
X142337742Y-75677500D02*
X142812258Y-75677500D01*
X142337742Y-76722500D02*
X142812258Y-76722500D01*
%TO.C,R1*%
X127212258Y-73722500D02*
X126737742Y-73722500D01*
X127212258Y-72677500D02*
X126737742Y-72677500D01*
%TO.C,BT1*%
X125210000Y-91800000D02*
X125210000Y-88300000D01*
X135750000Y-107780000D02*
X136380000Y-107780000D01*
X125210000Y-105700000D02*
X127290000Y-107780000D01*
X127290000Y-107780000D02*
X129750000Y-107780000D01*
X127290000Y-86220000D02*
X129750000Y-86220000D01*
X135750000Y-86220000D02*
X136380000Y-86220000D01*
X125210000Y-105700000D02*
X125210000Y-102200000D01*
X136380000Y-107780000D02*
X140330000Y-106340000D01*
X136380000Y-86220000D02*
X140330000Y-87660000D01*
X125210000Y-88300000D02*
X127290000Y-86220000D01*
X140338169Y-106325243D02*
G75*
G03*
X141299999Y-103000000I-738169J2015243D01*
G01*
X141316530Y-90996646D02*
G75*
G03*
X140330000Y-87660000I-1716531J1306646D01*
G01*
%TD*%
M02*
