%TF.GenerationSoftware,KiCad,Pcbnew,7.0.7*%
%TF.CreationDate,2023-09-02T14:38:40-07:00*%
%TF.ProjectId,badgelife101,62616467-656c-4696-9665-3130312e6b69,rev?*%
%TF.SameCoordinates,Original*%
%TF.FileFunction,Copper,L2,Bot*%
%TF.FilePolarity,Positive*%
%FSLAX46Y46*%
G04 Gerber Fmt 4.6, Leading zero omitted, Abs format (unit mm)*
G04 Created by KiCad (PCBNEW 7.0.7) date 2023-09-02 14:38:40*
%MOMM*%
%LPD*%
G01*
G04 APERTURE LIST*
G04 Aperture macros list*
%AMRoundRect*
0 Rectangle with rounded corners*
0 $1 Rounding radius*
0 $2 $3 $4 $5 $6 $7 $8 $9 X,Y pos of 4 corners*
0 Add a 4 corners polygon primitive as box body*
4,1,4,$2,$3,$4,$5,$6,$7,$8,$9,$2,$3,0*
0 Add four circle primitives for the rounded corners*
1,1,$1+$1,$2,$3*
1,1,$1+$1,$4,$5*
1,1,$1+$1,$6,$7*
1,1,$1+$1,$8,$9*
0 Add four rect primitives between the rounded corners*
20,1,$1+$1,$2,$3,$4,$5,0*
20,1,$1+$1,$4,$5,$6,$7,0*
20,1,$1+$1,$6,$7,$8,$9,0*
20,1,$1+$1,$8,$9,$2,$3,0*%
G04 Aperture macros list end*
%TA.AperFunction,SMDPad,CuDef*%
%ADD10C,10.200000*%
%TD*%
%TA.AperFunction,SMDPad,CuDef*%
%ADD11RoundRect,0.200000X-0.200000X-0.275000X0.200000X-0.275000X0.200000X0.275000X-0.200000X0.275000X0*%
%TD*%
%TA.AperFunction,SMDPad,CuDef*%
%ADD12RoundRect,0.200000X0.275000X-0.200000X0.275000X0.200000X-0.275000X0.200000X-0.275000X-0.200000X0*%
%TD*%
%TA.AperFunction,SMDPad,CuDef*%
%ADD13RoundRect,0.200000X0.200000X0.275000X-0.200000X0.275000X-0.200000X-0.275000X0.200000X-0.275000X0*%
%TD*%
%TA.AperFunction,SMDPad,CuDef*%
%ADD14R,5.080000X1.270000*%
%TD*%
%TA.AperFunction,SMDPad,CuDef*%
%ADD15C,17.800000*%
%TD*%
%TA.AperFunction,ViaPad*%
%ADD16C,0.700000*%
%TD*%
%TA.AperFunction,Conductor*%
%ADD17C,0.400000*%
%TD*%
G04 APERTURE END LIST*
D10*
%TO.P,TP1,1,1*%
%TO.N,GND*%
X132750000Y-78000000D03*
%TD*%
D11*
%TO.P,R6,2*%
%TO.N,Net-(D6-A)*%
X143450000Y-77800000D03*
%TO.P,R6,1*%
%TO.N,VCC*%
X141800000Y-77800000D03*
%TD*%
D12*
%TO.P,R5,1*%
%TO.N,VCC*%
X114200000Y-90450000D03*
%TO.P,R5,2*%
%TO.N,Net-(D5-A)*%
X114200000Y-88800000D03*
%TD*%
D11*
%TO.P,R4,1*%
%TO.N,VCC*%
X138200000Y-108600000D03*
%TO.P,R4,2*%
%TO.N,Net-(D4-A)*%
X139850000Y-108600000D03*
%TD*%
D13*
%TO.P,R3,1*%
%TO.N,VCC*%
X126800000Y-108800000D03*
%TO.P,R3,2*%
%TO.N,Net-(D3-A)*%
X125150000Y-108800000D03*
%TD*%
D11*
%TO.P,R2,1*%
%TO.N,VCC*%
X141750000Y-76200000D03*
%TO.P,R2,2*%
%TO.N,Net-(D2-A)*%
X143400000Y-76200000D03*
%TD*%
D13*
%TO.P,R1,1*%
%TO.N,VCC*%
X127800000Y-73200000D03*
%TO.P,R1,2*%
%TO.N,Net-(D1-A)*%
X126150000Y-73200000D03*
%TD*%
D14*
%TO.P,BT1,1,+*%
%TO.N,VCC*%
X132750000Y-107985000D03*
X132750000Y-86015000D03*
D15*
%TO.P,BT1,2,-*%
%TO.N,GND*%
X132750000Y-97000000D03*
%TD*%
D16*
%TO.N,GND*%
X151400000Y-91800000D03*
X144400000Y-84400000D03*
X144600000Y-94600000D03*
%TO.N,Net-(D4-A)*%
X140200000Y-107200000D03*
%TO.N,Net-(D3-A)*%
X125000000Y-107000000D03*
%TO.N,Net-(D5-A)*%
X114200000Y-88000000D03*
%TO.N,Net-(D1-A)*%
X125200000Y-73000000D03*
%TO.N,Net-(D6-A)*%
X151400000Y-88200000D03*
%TO.N,Net-(D2-A)*%
X143600000Y-75000000D03*
%TD*%
D17*
%TO.N,GND*%
X151400000Y-91800000D02*
X148600000Y-94600000D01*
X148600000Y-94600000D02*
X144600000Y-94600000D01*
X143800000Y-84400000D02*
X144400000Y-84400000D01*
X143800000Y-94600000D02*
X144600000Y-94600000D01*
X143800000Y-94600000D02*
X143800000Y-84400000D01*
X132750000Y-97000000D02*
X141400000Y-97000000D01*
X137400000Y-78000000D02*
X132750000Y-78000000D01*
X141400000Y-97000000D02*
X143800000Y-94600000D01*
X143800000Y-84400000D02*
X137400000Y-78000000D01*
%TO.N,Net-(D4-A)*%
X139850000Y-107550000D02*
X140200000Y-107200000D01*
X139850000Y-108600000D02*
X139850000Y-107550000D01*
%TO.N,Net-(D3-A)*%
X125150000Y-107150000D02*
X125000000Y-107000000D01*
X125150000Y-108800000D02*
X125150000Y-107150000D01*
%TO.N,Net-(D5-A)*%
X114200000Y-88800000D02*
X114200000Y-88000000D01*
%TO.N,Net-(D1-A)*%
X125400000Y-73200000D02*
X125200000Y-73000000D01*
X126150000Y-73200000D02*
X125400000Y-73200000D01*
%TO.N,Net-(D6-A)*%
X143450000Y-80250000D02*
X151400000Y-88200000D01*
X143450000Y-77800000D02*
X143450000Y-80250000D01*
%TO.N,Net-(D2-A)*%
X143400000Y-75200000D02*
X143600000Y-75000000D01*
X143400000Y-76200000D02*
X143400000Y-75200000D01*
%TO.N,VCC*%
X141750000Y-76200000D02*
X141750000Y-77750000D01*
X141750000Y-77750000D02*
X141800000Y-77800000D01*
X127800000Y-73200000D02*
X128800000Y-72200000D01*
X128800000Y-72200000D02*
X137750000Y-72200000D01*
X137750000Y-72200000D02*
X141750000Y-76200000D01*
X126185000Y-86015000D02*
X126185000Y-76215000D01*
X127800000Y-74600000D02*
X127800000Y-73200000D01*
X126185000Y-76215000D02*
X127800000Y-74600000D01*
X132750000Y-107985000D02*
X137585000Y-107985000D01*
X137585000Y-107985000D02*
X138200000Y-108600000D01*
X126800000Y-107000000D02*
X127785000Y-107985000D01*
X127785000Y-107985000D02*
X132750000Y-107985000D01*
X121750000Y-90450000D02*
X121750000Y-101950000D01*
X121750000Y-101950000D02*
X126800000Y-107000000D01*
X126800000Y-107000000D02*
X126800000Y-108800000D01*
X132750000Y-86015000D02*
X126185000Y-86015000D01*
X126185000Y-86015000D02*
X121750000Y-90450000D01*
X121750000Y-90450000D02*
X114200000Y-90450000D01*
%TD*%
M02*
